<svg width="139" height="102" viewBox="0 0 139 102" fill="none" xmlns="http://www.w3.org/2000/svg">
<path d="M89.033 13.6066L117.607 24.4918V59.8689L89.033 48.9836V13.6066Z" fill="url(#paint0_linear_49_38)"/>
<path d="M49.5737 13.6066L21 24.4918V59.8689L49.5737 48.9836V13.6066Z" fill="url(#paint1_linear_49_38)"/>
<path d="M70.972 0.0519333L70.7137 0.091507L70.7535 5.15704C70.7733 7.94704 70.823 11.6472 70.8528 13.3984L70.9124 16.5743L74.9453 16.6336C77.1604 16.6732 78.998 16.6732 79.0278 16.6435C79.0576 16.6138 79.1569 15.1298 79.2364 13.3391C79.3159 11.5483 79.4152 10.0544 79.4549 10.0247C79.5542 9.91587 81.1535 10.1533 82.266 10.4303C85.2658 11.1823 89.7556 12.9235 93.1428 14.6351C95.0599 15.6047 96.2221 16.3368 96.2221 16.5743C96.232 17.0986 95.5963 24.4793 95.5367 24.5287C95.5069 24.5584 94.156 25.1817 92.5468 25.9039C87.0737 28.3576 81.2727 30.9695 80.3092 31.4147L79.3457 31.8599L76.4452 35.7877C74.836 37.9445 72.9487 40.4871 72.2434 41.4369C70.2469 44.1379 69.8694 44.6227 69.5714 44.8403C69.3032 45.0382 69.3032 45.0382 69.1642 44.8502C69.0847 44.7414 66.7901 41.7139 64.0585 38.1325L59.0919 31.6126L51.2149 28.1201C46.8741 26.2008 43.2684 24.598 43.1989 24.5485C43.0995 24.4892 42.9903 23.4602 42.7817 20.4625C42.6228 18.2562 42.5334 16.4358 42.5632 16.4061C44.1823 15.1694 48.4535 13.1214 52.4169 11.6769C54.9796 10.7469 57.0556 10.1929 58.6549 10.0148L59.2707 9.94555V10.2127C59.2707 10.6282 59.5787 16.6435 59.5985 16.6534C59.6085 16.6534 61.4759 16.6336 63.7407 16.604L67.8629 16.5545L67.8927 8.3131L67.9126 0.0816116H66.3034C63.4725 0.0816116 59.5091 0.813744 54.2545 2.30768C48.6621 3.90055 45.7716 5.05811 37.5171 9.05512C36.2854 9.64874 34.8252 10.3314 34.269 10.5688L33.2458 10.9943V11.8946C33.2458 13.1115 33.7028 23.0051 33.8915 25.9039C34.6365 37.1926 36.1265 45.6912 38.6594 53.1114C41.0533 60.0963 44.2319 65.3498 49.0396 70.2669C52.4963 73.7989 57.6616 77.6278 63.2937 80.8333C65.469 82.07 67.3961 82.9901 67.8133 82.9901C67.8729 82.9901 67.9126 81.229 67.9126 78.1422V73.3043L67.2371 72.8294C66.8597 72.5622 65.628 71.7707 64.4956 71.0683C61.2673 69.05 59.9263 67.9914 57.145 65.2805C53.4996 61.7188 50.8971 58.4045 49.3276 55.3375C48.7018 54.0909 48.1953 52.8344 48.2946 52.7354C48.3244 52.7058 50.0726 53.4478 52.1884 54.3778C54.3141 55.3078 56.3405 56.1883 56.698 56.3268L57.3437 56.5939L60.3236 54.4767C61.9527 53.3093 63.3632 52.3298 63.4427 52.2803C63.6612 52.1715 63.3036 52.4881 60.2342 55.1792C58.7244 56.5148 57.4828 57.6723 57.4828 57.7515C57.4927 57.9494 58.6449 63.2029 58.6847 63.2425C58.7045 63.2622 59.7575 63.3711 61.009 63.4898C62.2705 63.6085 63.4129 63.7173 63.5718 63.7272L63.84 63.7668L65.3002 59.374C66.1047 56.9699 66.7703 55.0011 66.7802 55.0209C66.8001 55.0308 66.2438 57.2469 65.5584 59.9281L64.3068 64.8056L66.81 67.2988L69.3032 69.7821L71.8064 67.2889L74.3095 64.7957L74.091 63.8756C73.9718 63.3711 73.4553 61.2242 72.9288 59.1069C72.4123 56.9897 71.9951 55.2385 72.015 55.2286C72.0348 55.2088 72.6209 56.9996 73.3162 59.2256C74.0115 61.4418 74.6274 63.3711 74.687 63.5195C74.7665 63.7371 74.8559 63.7965 75.1042 63.7965C75.5214 63.7965 80.2396 63.2227 80.2992 63.1732C80.339 63.1237 80.488 62.2531 80.9747 59.097C81.0641 58.4935 81.1237 57.8999 81.1038 57.7614C81.084 57.5932 80.2794 56.8215 78.3225 55.0901C75.7995 52.8739 74.9651 52.1022 75.3625 52.3892C75.4419 52.4386 76.7432 53.3785 78.2431 54.4668C79.743 55.5551 81.0641 56.5049 81.1833 56.5742C81.3621 56.683 81.8786 56.4851 85.8717 54.7438C88.3451 53.6654 90.3913 52.8146 90.4211 52.8344C90.441 52.864 90.3317 53.24 90.1629 53.6654C88.514 57.7911 83.3885 64.1032 78.4914 68.031C77.2895 68.9906 76.0975 69.8019 72.5613 72.0774C71.7766 72.5721 71.0415 73.0767 70.9223 73.1855C70.7038 73.3834 70.7038 73.4329 70.6939 76.3812C70.6939 78.0235 70.7237 80.1902 70.7535 81.1895L70.823 83L71.0713 82.9406C71.8163 82.7527 74.2698 81.4962 76.8028 79.9923C85.0175 75.1049 90.9675 69.7821 94.8613 63.8361C99.1921 57.2073 102.212 47.9964 103.811 36.5396C104.486 31.7115 104.824 27.3781 105.063 20.5119C105.122 18.8795 105.212 16.6336 105.261 15.5157C105.311 14.3977 105.361 12.9235 105.361 12.231V10.9844L104.596 10.6678C104.169 10.4897 102.013 9.45087 99.798 8.35268C97.5631 7.24459 94.9208 6.01778 93.8481 5.58247C86.577 2.67374 79.0179 0.566399 74.1307 0.091507C73.0878 -0.0173187 71.5283 -0.0272141 70.972 0.0519333Z" fill="url(#paint2_linear_49_38)"/>
<g filter="url(#filter0_d_49_38)">
<rect x="21" y="24" width="97" height="53" fill="url(#paint3_linear_49_38)"/>
</g>
<path d="M28 33.917V27.5115H31.1766C31.7808 27.5115 32.2355 27.664 32.5407 27.9691C32.8522 28.2741 33.0079 28.7051 33.0079 29.2621C33.0079 29.6003 32.9456 29.8854 32.821 30.1175C32.7027 30.3429 32.5438 30.5186 32.3445 30.6446C32.6186 30.7507 32.8335 30.9065 32.9892 31.1121C33.1449 31.3176 33.2228 31.626 33.2228 32.0371C33.2228 32.6471 33.0546 33.1146 32.7182 33.4395C32.3819 33.7578 31.8992 33.917 31.2701 33.917H28ZM29.5042 30.1175H30.7282C30.9898 30.1175 31.1797 30.0545 31.2981 29.9285C31.4164 29.8025 31.4756 29.6268 31.4756 29.4013C31.4756 29.156 31.4164 28.9736 31.2981 28.8543C31.1797 28.7283 30.9649 28.6653 30.6534 28.6653H29.5042V30.1175ZM29.5042 32.7731H30.8777C31.1517 32.7731 31.3542 32.7134 31.485 32.5941C31.622 32.4747 31.6905 32.2625 31.6905 31.9575C31.6905 31.7122 31.6251 31.5298 31.4943 31.4105C31.3635 31.2845 31.1393 31.2215 30.8216 31.2215H29.5042V32.7731Z" fill="white"/>
<path d="M35.3495 34.0164C34.8636 34.0164 34.5148 33.9037 34.3031 33.6782C34.0913 33.4528 33.9854 33.0914 33.9854 32.5941V27.2131H35.4896V32.435C35.4896 32.5875 35.5176 32.6936 35.5737 32.7532C35.636 32.8063 35.7263 32.8328 35.8447 32.8328C36.0128 32.8328 36.1623 32.8096 36.2931 32.7632V33.8473C36.1499 33.907 36.0066 33.9501 35.8633 33.9766C35.7263 34.0032 35.555 34.0164 35.3495 34.0164Z" fill="white"/>
<path d="M39.1672 34.0164C38.3139 34.0164 37.6848 33.8075 37.2799 33.3898C36.875 32.9654 36.6726 32.3554 36.6726 31.5597C36.6726 30.7706 36.875 30.1639 37.2799 29.7395C37.691 29.3151 38.3201 29.1029 39.1672 29.1029C40.0205 29.1029 40.6496 29.3151 41.0545 29.7395C41.4656 30.1639 41.6711 30.7706 41.6711 31.5597C41.6711 32.3554 41.4687 32.9654 41.0638 33.3898C40.659 33.8075 40.0268 34.0164 39.1672 34.0164ZM39.1672 32.7632C39.516 32.7632 39.7652 32.6703 39.9146 32.4847C40.0641 32.299 40.1389 31.9907 40.1389 31.5597C40.1389 31.1287 40.0641 30.8203 39.9146 30.6347C39.7652 30.449 39.516 30.3562 39.1672 30.3562C38.8246 30.3562 38.5786 30.449 38.4291 30.6347C38.2796 30.8203 38.2049 31.1287 38.2049 31.5597C38.2049 31.9907 38.2796 32.299 38.4291 32.4847C38.5786 32.6703 38.8246 32.7632 39.1672 32.7632Z" fill="white"/>
<path d="M44.77 34.0164C43.979 34.0164 43.3592 33.8109 42.9108 33.3997C42.4685 32.9886 42.2474 32.3753 42.2474 31.5597C42.2474 30.7308 42.4779 30.1141 42.9388 29.7097C43.4059 29.3052 44.0257 29.1029 44.7981 29.1029C45.122 29.1029 45.4022 29.1295 45.6389 29.1825C45.8819 29.2289 46.1154 29.3085 46.3397 29.4212V30.5551C45.9909 30.3761 45.5829 30.2865 45.1157 30.2865C44.6797 30.2865 44.3465 30.3794 44.116 30.565C43.8918 30.7507 43.7797 31.0823 43.7797 31.5597C43.7797 32.0039 43.8856 32.3289 44.0973 32.5344C44.3091 32.7333 44.6455 32.8328 45.1064 32.8328C45.5611 32.8328 45.9753 32.7333 46.349 32.5344V33.718C46.1248 33.8241 45.8819 33.9004 45.6202 33.9468C45.3649 33.9932 45.0815 34.0164 44.77 34.0164Z" fill="white"/>
<path d="M47.1149 33.917V27.2131H48.6191V30.7142L50.0673 29.2024H51.7771L50.0019 31.1618L51.8799 33.917H50.2822L49.0583 32.0073L48.6191 32.4648V33.917H47.1149Z" fill="white"/>
<path d="M52.1196 33.917L54.418 27.5115H56.0437L58.3421 33.917H56.7725L56.2306 32.4648H54.2218L53.6893 33.917H52.1196ZM54.4274 31.2812H56.025L55.2215 29.0532L54.4274 31.2812Z" fill="white"/>
<path d="M60.2984 34.0164C59.7752 34.0164 59.3672 33.8606 59.0745 33.5489C58.7817 33.2307 58.6353 32.7698 58.6353 32.1664V29.2024H60.1396V32.0769C60.1396 32.3421 60.1987 32.5377 60.3171 32.6637C60.4417 32.7831 60.6254 32.8427 60.8683 32.8427C61.0489 32.8427 61.2202 32.803 61.3822 32.7234C61.5441 32.6438 61.678 32.5444 61.7839 32.425V29.2024H63.2882V33.917H61.8867L61.84 33.5191C61.6594 33.665 61.4414 33.7843 61.186 33.8772C60.9306 33.97 60.6347 34.0164 60.2984 34.0164Z" fill="white"/>
<path d="M66.1001 34.0164C65.6703 34.0164 65.3028 33.9435 64.9976 33.7976C64.6924 33.6517 64.4588 33.413 64.2968 33.0815C64.1349 32.7433 64.0539 32.2924 64.0539 31.7288C64.0539 31.1585 64.1474 30.6811 64.3342 30.2965C64.5211 29.9053 64.7765 29.6102 65.1003 29.4113C65.4305 29.2057 65.8073 29.1029 66.2309 29.1029C66.4613 29.1029 66.6669 29.1295 66.8475 29.1825C67.0344 29.2356 67.2088 29.3151 67.3707 29.4212V27.2131H68.8749V33.917H67.5763L67.4922 33.5191C67.3115 33.6849 67.1091 33.8109 66.8849 33.8971C66.6606 33.9766 66.399 34.0164 66.1001 34.0164ZM66.5298 32.8527C66.86 32.8527 67.1402 32.7333 67.3707 32.4946V30.5849C67.1589 30.3794 66.888 30.2766 66.5579 30.2766C66.2402 30.2766 65.9973 30.4059 65.8291 30.6645C65.6672 30.9165 65.5862 31.2745 65.5862 31.7387C65.5862 32.1896 65.664 32.488 65.8198 32.6339C65.9817 32.7798 66.2184 32.8527 66.5298 32.8527Z" fill="white"/>
<path d="M70.1237 28.4564V27.2529H71.7587V28.4564H70.1237ZM70.2452 33.917V30.386H69.5911L69.7219 29.2024H71.7494V33.917H70.2452Z" fill="white"/>
<path d="M74.5298 34.0164C73.9817 34.0164 73.5768 33.8672 73.3152 33.5688C73.0598 33.2704 72.9322 32.8593 72.9322 32.3355V30.4158H72.3342V29.2024H72.9322V28.2177L74.4364 27.79V29.2024H75.5108L75.4454 30.4158H74.4364V32.2261C74.4364 32.4515 74.4893 32.6107 74.5952 32.7035C74.7011 32.7897 74.8599 32.8328 75.0717 32.8328C75.2523 32.8328 75.4361 32.7996 75.623 32.7333V33.8175C75.3302 33.9501 74.9658 34.0164 74.5298 34.0164Z" fill="white"/>
<path d="M83.5903 43.543L91.1146 50.3442L93.0125 48.6165L85.5017 41.8275M112.974 34.0164L98.7331 46.901L93.1336 41.8275L91.2088 43.543L98.7331 50.3442L114.885 35.744M107.267 35.744L105.369 34.0164L96.8218 41.7423L98.7331 43.4578L107.267 35.744Z" fill="#00DE24"/>
<path d="M31.4925 46.3883C30.0326 46.3883 28.9188 46.0262 28.1513 45.3019C27.3838 44.5776 27 43.5543 27 42.232C27 40.8677 27.3754 39.8234 28.1263 39.0991C28.8771 38.3664 29.995 38 31.48 38C31.9806 38 32.4269 38.0379 32.819 38.1137C33.2111 38.1895 33.5866 38.2948 33.9453 38.4295V40.5013C33.2278 40.1813 32.4603 40.0213 31.6427 40.0213C30.8835 40.0213 30.3204 40.1981 29.9533 40.5519C29.5862 40.8972 29.4027 41.4572 29.4027 42.232C29.4027 42.99 29.5946 43.5375 29.9783 43.8743C30.3705 44.2028 30.9336 44.367 31.6677 44.367C32.0682 44.367 32.4561 44.3291 32.8315 44.2533C33.2153 44.1775 33.5949 44.0596 33.9703 43.8996V45.984C33.6116 46.1104 33.232 46.2072 32.8315 46.2746C32.4394 46.3504 31.9931 46.3883 31.4925 46.3883Z" fill="white"/>
<path d="M38.0677 46.3883C36.883 46.3883 36.0071 46.123 35.4398 45.5924C34.8808 45.0618 34.6013 44.287 34.6013 43.268C34.6013 42.2573 34.885 41.4867 35.4523 40.9561C36.0196 40.4171 36.8914 40.1476 38.0677 40.1476C39.2524 40.1476 40.1284 40.4171 40.6957 40.9561C41.2713 41.4867 41.5591 42.2573 41.5591 43.268C41.5591 44.287 41.2755 45.0618 40.7082 45.5924C40.1409 46.123 39.2607 46.3883 38.0677 46.3883ZM38.0677 44.6576C38.4515 44.6576 38.7268 44.5481 38.8936 44.3291C39.0688 44.1102 39.1564 43.7564 39.1564 43.268C39.1564 42.7879 39.0688 42.4384 38.8936 42.2194C38.7268 41.992 38.4515 41.8783 38.0677 41.8783C37.6923 41.8783 37.4211 41.992 37.2543 42.2194C37.0874 42.4384 37.004 42.7879 37.004 43.268C37.004 43.7564 37.0874 44.1102 37.2543 44.3291C37.4211 44.5481 37.6923 44.6576 38.0677 44.6576Z" fill="white"/>
<path d="M42.4407 46.262V40.2739H44.6432L44.7057 40.7287C44.931 40.5771 45.2271 40.4424 45.5942 40.3245C45.9696 40.2066 46.3701 40.1476 46.7956 40.1476C47.5381 40.1476 48.0803 40.3329 48.4224 40.7035C48.7644 41.074 48.9355 41.6467 48.9355 42.4215V46.262H46.5828V42.6616C46.5828 42.3921 46.5244 42.1984 46.4076 42.0805C46.2908 41.9625 46.0864 41.9036 45.7944 41.9036C45.6192 41.9036 45.4357 41.9457 45.2438 42.0299C45.0603 42.1141 44.9101 42.2152 44.7933 42.3331V46.262H42.4407Z" fill="white"/>
<path d="M52.5335 46.3883C51.7409 46.3883 51.1653 46.1862 50.8065 45.7819C50.4478 45.3777 50.2684 44.8302 50.2684 44.1396V42.0299H49.4925V40.2739H50.2684V39.0485L52.6211 38.4801V40.2739H53.9851L53.8975 42.0299H52.6211V43.9628C52.6211 44.2154 52.6836 44.3965 52.8088 44.506C52.9339 44.607 53.1258 44.6576 53.3844 44.6576C53.6264 44.6576 53.8725 44.6155 54.1227 44.5312V46.1104C53.6806 46.2957 53.1508 46.3883 52.5335 46.3883Z" fill="white"/>
<path d="M54.747 46.262V40.2739H57.012L57.0746 40.754C57.3165 40.6108 57.6252 40.4803 58.0006 40.3624C58.3761 40.2445 58.7556 40.1729 59.1394 40.1476V41.9162C58.9225 41.9331 58.6847 41.9625 58.4261 42.0047C58.1758 42.0468 57.9297 42.1015 57.6878 42.1689C57.4542 42.2278 57.2581 42.2952 57.0996 42.371V46.262H54.747Z" fill="white"/>
<path d="M61.2796 46.3883C60.9042 46.3883 60.5538 46.3209 60.2284 46.1862C59.9114 46.0514 59.657 45.8409 59.4651 45.5545C59.2732 45.2682 59.1772 44.906 59.1772 44.4681C59.1772 43.8364 59.3858 43.348 59.803 43.0027C60.2201 42.6489 60.85 42.4721 61.6926 42.4721H63.2318V42.3584C63.2318 42.1226 63.1359 41.9499 62.944 41.8404C62.7521 41.7309 62.4142 41.6762 61.9303 41.6762C61.2462 41.6762 60.5705 41.7815 59.9031 41.992V40.5645C60.2034 40.4466 60.5788 40.3497 61.0293 40.2739C61.4798 40.1897 61.9387 40.1476 62.4059 40.1476C63.3486 40.1476 64.0953 40.3413 64.6459 40.7287C65.1965 41.1161 65.4718 41.7309 65.4718 42.5731V46.262H63.4195L63.3069 45.7819C63.0983 45.9672 62.8272 46.1146 62.4935 46.2241C62.1681 46.3336 61.7635 46.3883 61.2796 46.3883ZM62.0805 44.9987C62.3475 44.9987 62.5727 44.9523 62.7563 44.8597C62.9482 44.7671 63.1067 44.6534 63.2318 44.5186V43.7733H62.093C61.5758 43.7733 61.3172 43.9796 61.3172 44.3923C61.3172 44.7965 61.5716 44.9987 62.0805 44.9987Z" fill="white"/>
<path d="M69.7811 46.3883C68.7049 46.3883 67.854 46.1314 67.2283 45.6177C66.6026 45.0955 66.2897 44.3123 66.2897 43.268C66.2897 42.5605 66.4357 41.9752 66.7277 41.512C67.0197 41.0488 67.4285 40.7077 67.9541 40.4887C68.4797 40.2613 69.0929 40.1476 69.7937 40.1476C70.2358 40.1476 70.6321 40.1813 70.9825 40.2487C71.3329 40.3076 71.6666 40.4129 71.9836 40.5645V42.232C71.4914 41.9962 70.9324 41.8783 70.3067 41.8783C69.7728 41.8783 69.3682 41.9794 69.0929 42.1815C68.8259 42.3836 68.6924 42.7458 68.6924 43.268C68.6924 43.7564 68.8217 44.1102 69.0804 44.3291C69.339 44.5481 69.7478 44.6576 70.3067 44.6576C70.6071 44.6576 70.8991 44.6239 71.1827 44.5565C71.4664 44.4807 71.7375 44.3754 71.9961 44.2407V45.984C71.6791 46.1272 71.3371 46.2283 70.97 46.2872C70.6112 46.3546 70.215 46.3883 69.7811 46.3883Z" fill="white"/>
<path d="M75.4107 46.3883C74.6182 46.3883 74.0425 46.1862 73.6838 45.7819C73.325 45.3777 73.1457 44.8302 73.1457 44.1396V42.0299H72.3698V40.2739H73.1457V39.0485L75.4983 38.4801V40.2739H76.8623L76.7747 42.0299H75.4983V43.9628C75.4983 44.2154 75.5609 44.3965 75.686 44.506C75.8112 44.607 76.003 44.6576 76.2617 44.6576C76.5036 44.6576 76.7497 44.6155 77 44.5312V46.1104C76.5578 46.2957 76.0281 46.3883 75.4107 46.3883Z" fill="white"/>
<path d="M32.2785 56.8737L29.1875 48.738H31.6403L33.5174 54.1197L35.3945 48.738H37.8598L34.7688 56.8737H32.2785Z" fill="white"/>
<path d="M40.8797 57C40.1872 57 39.574 56.8863 39.0401 56.6589C38.5145 56.4231 38.1015 56.0736 37.8012 55.6104C37.5092 55.1472 37.3632 54.5745 37.3632 53.8923C37.3632 52.9406 37.6302 52.1826 38.1641 51.6184C38.698 51.0457 39.4948 50.7593 40.5543 50.7593C41.522 50.7593 42.2771 51.0078 42.8193 51.5047C43.3699 52.0016 43.6453 52.6795 43.6453 53.5386V54.5871H39.5281C39.6366 54.9071 39.8493 55.1345 40.1663 55.2693C40.4834 55.404 40.913 55.4714 41.4553 55.4714C41.7973 55.4714 42.1394 55.4419 42.4814 55.383C42.8318 55.3156 43.1113 55.2398 43.3199 55.1556V56.5831C42.7359 56.861 41.9225 57 40.8797 57ZM39.5281 53.2985H41.618V53.0838C41.618 52.848 41.5429 52.6543 41.3927 52.5027C41.2509 52.3511 40.9964 52.2753 40.6294 52.2753C40.2206 52.2753 39.9328 52.3637 39.7659 52.5406C39.6074 52.709 39.5281 52.9617 39.5281 53.2985Z" fill="white"/>
<path d="M44.5182 56.8737V50.8856H46.7833L46.8458 51.3657C47.0878 51.2225 47.3964 51.092 47.7719 50.9741C48.1473 50.8562 48.5269 50.7846 48.9106 50.7593V52.5279C48.6937 52.5448 48.456 52.5742 48.1973 52.6164C47.9471 52.6585 47.7009 52.7132 47.459 52.7806C47.2254 52.8395 47.0294 52.9069 46.8708 52.9827V56.8737H44.5182Z" fill="white"/>
<path d="M49.9906 50.0898V48.3717H52.5309V50.0898H49.9906ZM50.1783 56.8737V52.6164H49.3148L49.515 50.8856H52.5309V56.8737H50.1783Z" fill="white"/>
<path d="M53.9221 56.8737V52.6416H53.1588V50.8856H53.9221V50.5319C53.9221 50.094 54.0222 49.6939 54.2225 49.3318C54.431 48.9696 54.7397 48.6791 55.1485 48.4601C55.5573 48.2411 56.0579 48.1316 56.6502 48.1316C57.3677 48.1316 57.9517 48.2201 58.4022 48.3969V50.0013C58.302 49.9592 58.1644 49.9255 57.9892 49.9003C57.814 49.8666 57.6513 49.8497 57.5011 49.8497C56.6836 49.8497 56.2748 50.094 56.2748 50.5824V50.8856H59.8037V56.8737H57.4511V52.6416H56.2748V56.8737H53.9221Z" fill="white"/>
<path d="M64.1968 57C63.5044 57 62.8912 56.8863 62.3573 56.6589C61.8317 56.4231 61.4187 56.0736 61.1184 55.6104C60.8264 55.1472 60.6804 54.5745 60.6804 53.8923C60.6804 52.9406 60.9474 52.1826 61.4813 51.6184C62.0152 51.0457 62.812 50.7593 63.8715 50.7593C64.8392 50.7593 65.5943 51.0078 66.1365 51.5047C66.6871 52.0016 66.9625 52.6795 66.9625 53.5386V54.5871H62.8453C62.9538 54.9071 63.1665 55.1345 63.4835 55.2693C63.8006 55.404 64.2302 55.4714 64.7725 55.4714C65.1145 55.4714 65.4566 55.4419 65.7986 55.383C66.149 55.3156 66.4285 55.2398 66.6371 55.1556V56.5831C66.0531 56.861 65.2397 57 64.1968 57ZM62.8453 53.2985H64.9352V53.0838C64.9352 52.848 64.8601 52.6543 64.7099 52.5027C64.5681 52.3511 64.3136 52.2753 63.9466 52.2753C63.5378 52.2753 63.25 52.3637 63.0831 52.5406C62.9246 52.709 62.8453 52.9617 62.8453 53.2985Z" fill="white"/>
<path d="M70.3507 57C69.7918 57 69.3037 56.9074 68.8866 56.7221C68.4778 56.5284 68.1566 56.2168 67.923 55.7872C67.6978 55.3577 67.5851 54.785 67.5851 54.0691C67.5851 53.3364 67.7144 52.7258 67.9731 52.2374C68.2317 51.7489 68.5779 51.3825 69.0117 51.1383C69.4455 50.8856 69.9169 50.7593 70.4258 50.7593C70.7011 50.7593 70.9723 50.7888 71.2392 50.8477C71.5145 50.9067 71.7523 50.9909 71.9525 51.1004V48.359H74.3052V56.8737H72.2654L72.1528 56.4062C71.9192 56.5915 71.6564 56.7389 71.3644 56.8484C71.0807 56.9495 70.7428 57 70.3507 57ZM71.0265 55.2819C71.3852 55.2819 71.6939 55.1598 71.9525 54.9156V52.7932C71.7189 52.5827 71.4103 52.4774 71.0265 52.4774C70.7178 52.4774 70.4675 52.6164 70.2757 52.8943C70.0838 53.1722 69.9878 53.568 69.9878 54.0818C69.9878 54.5871 70.0713 54.9156 70.2381 55.0672C70.405 55.2103 70.6678 55.2819 71.0265 55.2819Z" fill="white"/>
<rect x="29" y="65" width="82" height="2" rx="1" fill="white"/>
<rect x="29" y="70" width="82" height="2" rx="1" fill="white"/>
<rect x="29" y="60" width="48" height="2" rx="1" fill="white"/>
<defs>
<filter id="filter0_d_49_38" x="0" y="7" width="139" height="95" filterUnits="userSpaceOnUse" color-interpolation-filters="sRGB">
<feFlood flood-opacity="0" result="BackgroundImageFix"/>
<feColorMatrix in="SourceAlpha" type="matrix" values="0 0 0 0 0 0 0 0 0 0 0 0 0 0 0 0 0 0 127 0" result="hardAlpha"/>
<feOffset dy="4"/>
<feGaussianBlur stdDeviation="10.5"/>
<feComposite in2="hardAlpha" operator="out"/>
<feColorMatrix type="matrix" values="0 0 0 0 0 0 0 0 0 0 0 0 0 0 0 0 0 0 0.25 0"/>
<feBlend mode="normal" in2="BackgroundImageFix" result="effect1_dropShadow_49_38"/>
<feBlend mode="normal" in="SourceGraphic" in2="effect1_dropShadow_49_38" result="shape"/>
</filter>
<linearGradient id="paint0_linear_49_38" x1="103.32" y1="13.6066" x2="103.32" y2="59.8689" gradientUnits="userSpaceOnUse">
<stop stop-color="#00B51D"/>
<stop offset="1" stop-color="#006B11"/>
</linearGradient>
<linearGradient id="paint1_linear_49_38" x1="35.2868" y1="13.6066" x2="35.2868" y2="59.8689" gradientUnits="userSpaceOnUse">
<stop stop-color="#00B51D"/>
<stop offset="1" stop-color="#006B11"/>
</linearGradient>
<linearGradient id="paint2_linear_49_38" x1="69.3032" y1="83" x2="69.3032" y2="0" gradientUnits="userSpaceOnUse">
<stop stop-color="#740000"/>
<stop offset="1" stop-color="#FF1616"/>
</linearGradient>
<linearGradient id="paint3_linear_49_38" x1="69.5" y1="24" x2="69.5" y2="77" gradientUnits="userSpaceOnUse">
<stop stop-color="#2D2D2D"/>
<stop offset="1"/>
</linearGradient>
</defs>
</svg>
