<svg width="139" height="85" viewBox="0 0 139 85" fill="none" xmlns="http://www.w3.org/2000/svg">
<path d="M89.0327 13.6066L117.606 24.4918V59.8689L89.0327 48.9836V13.6066Z" fill="url(#paint0_linear_49_22)"/>
<path d="M49.5737 13.6066L21 24.4918V59.8689L49.5737 48.9836V13.6066Z" fill="url(#paint1_linear_49_22)"/>
<path d="M70.972 0.0519333L70.7137 0.091507L70.7535 5.15704C70.7733 7.94704 70.823 11.6472 70.8528 13.3984L70.9124 16.5743L74.9453 16.6336C77.1604 16.6732 78.998 16.6732 79.0278 16.6435C79.0576 16.6138 79.1569 15.1298 79.2364 13.3391C79.3159 11.5483 79.4152 10.0544 79.4549 10.0247C79.5542 9.91587 81.1535 10.1533 82.266 10.4303C85.2658 11.1823 89.7556 12.9235 93.1428 14.6351C95.0599 15.6047 96.2221 16.3368 96.2221 16.5743C96.232 17.0986 95.5963 24.4793 95.5367 24.5287C95.5069 24.5584 94.156 25.1817 92.5468 25.9039C87.0737 28.3576 81.2727 30.9695 80.3092 31.4147L79.3457 31.8599L76.4452 35.7877C74.836 37.9445 72.9487 40.4871 72.2434 41.4369C70.2469 44.1379 69.8694 44.6227 69.5714 44.8403C69.3032 45.0382 69.3032 45.0382 69.1642 44.8502C69.0847 44.7414 66.7901 41.7139 64.0585 38.1325L59.0919 31.6126L51.2149 28.1201C46.8741 26.2008 43.2684 24.598 43.1989 24.5485C43.0995 24.4892 42.9903 23.4602 42.7817 20.4625C42.6228 18.2562 42.5334 16.4358 42.5632 16.4061C44.1823 15.1694 48.4535 13.1214 52.4169 11.6769C54.9796 10.7469 57.0556 10.1929 58.6549 10.0148L59.2707 9.94555V10.2127C59.2707 10.6282 59.5787 16.6435 59.5985 16.6534C59.6085 16.6534 61.4759 16.6336 63.7407 16.604L67.8629 16.5545L67.8927 8.3131L67.9126 0.0816116H66.3034C63.4725 0.0816116 59.5091 0.813744 54.2545 2.30768C48.6621 3.90055 45.7716 5.05811 37.5171 9.05512C36.2854 9.64874 34.8252 10.3314 34.269 10.5688L33.2458 10.9943V11.8946C33.2458 13.1115 33.7028 23.0051 33.8915 25.9039C34.6365 37.1926 36.1265 45.6912 38.6594 53.1114C41.0533 60.0963 44.2319 65.3498 49.0396 70.2669C52.4963 73.7989 57.6616 77.6278 63.2937 80.8333C65.469 82.07 67.3961 82.9901 67.8133 82.9901C67.8729 82.9901 67.9126 81.229 67.9126 78.1422V73.3043L67.2371 72.8294C66.8597 72.5622 65.628 71.7707 64.4956 71.0683C61.2673 69.05 59.9263 67.9914 57.145 65.2805C53.4996 61.7188 50.8971 58.4045 49.3276 55.3375C48.7018 54.0909 48.1953 52.8344 48.2946 52.7354C48.3244 52.7058 50.0726 53.4478 52.1884 54.3778C54.3141 55.3078 56.3405 56.1883 56.698 56.3268L57.3437 56.5939L60.3236 54.4767C61.9527 53.3093 63.3632 52.3298 63.4427 52.2803C63.6612 52.1715 63.3036 52.4881 60.2342 55.1792C58.7244 56.5148 57.4828 57.6723 57.4828 57.7515C57.4927 57.9494 58.6449 63.2029 58.6847 63.2425C58.7045 63.2622 59.7575 63.3711 61.009 63.4898C62.2705 63.6085 63.4129 63.7173 63.5718 63.7272L63.84 63.7668L65.3002 59.374C66.1047 56.9699 66.7703 55.0011 66.7802 55.0209C66.8001 55.0308 66.2438 57.2469 65.5584 59.9281L64.3068 64.8056L66.81 67.2988L69.3032 69.7821L71.8064 67.2889L74.3095 64.7957L74.091 63.8756C73.9718 63.3711 73.4553 61.2242 72.9288 59.1069C72.4123 56.9897 71.9951 55.2385 72.015 55.2286C72.0348 55.2088 72.6209 56.9996 73.3162 59.2256C74.0115 61.4418 74.6274 63.3711 74.687 63.5195C74.7665 63.7371 74.8559 63.7965 75.1042 63.7965C75.5214 63.7965 80.2396 63.2227 80.2992 63.1732C80.339 63.1237 80.488 62.2531 80.9747 59.097C81.0641 58.4935 81.1237 57.8999 81.1038 57.7614C81.084 57.5932 80.2794 56.8215 78.3225 55.0901C75.7995 52.8739 74.9651 52.1022 75.3625 52.3892C75.4419 52.4386 76.7432 53.3785 78.2431 54.4668C79.743 55.5551 81.0641 56.5049 81.1833 56.5742C81.3621 56.683 81.8786 56.4851 85.8717 54.7438C88.3451 53.6654 90.3913 52.8146 90.4211 52.8344C90.441 52.864 90.3317 53.24 90.1629 53.6654C88.514 57.7911 83.3885 64.1032 78.4914 68.031C77.2895 68.9906 76.0975 69.8019 72.5613 72.0774C71.7766 72.5721 71.0415 73.0767 70.9223 73.1855C70.7038 73.3834 70.7038 73.4329 70.6939 76.3812C70.6939 78.0235 70.7237 80.1902 70.7535 81.1895L70.823 83L71.0713 82.9406C71.8163 82.7527 74.2698 81.4962 76.8028 79.9923C85.0175 75.1049 90.9675 69.7821 94.8613 63.8361C99.1921 57.2073 102.212 47.9964 103.811 36.5396C104.486 31.7115 104.824 27.3781 105.063 20.5119C105.122 18.8795 105.212 16.6336 105.261 15.5157C105.311 14.3977 105.361 12.9235 105.361 12.231V10.9844L104.596 10.6678C104.169 10.4897 102.013 9.45087 99.798 8.35268C97.5631 7.24459 94.9208 6.01778 93.8481 5.58247C86.577 2.67374 79.0179 0.566399 74.1307 0.091507C73.0878 -0.0173187 71.5283 -0.0272141 70.972 0.0519333Z" fill="url(#paint2_linear_49_22)"/>
<g filter="url(#filter0_d_49_22)">
<rect x="21" y="24.4918" width="96.6066" height="35.377" fill="url(#paint3_linear_49_22)"/>
</g>
<path d="M30.5247 54.1804V38.3443H35.8845V43.3607L40.0727 38.3443H46.1306L40.5713 44.8853L46.5794 54.1804H40.8954L37.2806 48.2295L35.8845 49.8279V54.1804H30.5247Z" fill="white"/>
<path d="M52.4863 54.1804V48.4017L46.7027 38.3443H52.2869L55.1788 43.8525L58.0706 38.3443H63.6549L57.8462 48.4017V54.1804H52.4863Z" fill="white"/>
<path d="M71.801 54.4263C68.7596 54.4263 66.4494 53.7295 64.8706 52.3361C63.3083 50.9427 62.5272 48.9345 62.5272 46.3115C62.5272 43.623 63.3 41.582 64.8456 40.1886C66.3913 38.7951 68.6931 38.0984 71.7512 38.0984C72.7816 38.0984 73.6874 38.1722 74.4685 38.3197C75.2496 38.4672 76.0058 38.6804 76.7371 38.959V43.5574C75.9726 43.2295 75.2164 42.9836 74.4685 42.8197C73.7372 42.6558 72.9561 42.5738 72.1251 42.5738C70.7789 42.5738 69.7485 42.8607 69.0338 43.4345C68.3358 43.9918 67.9868 44.9508 67.9868 46.3115C67.9868 47.6394 68.3524 48.582 69.0837 49.1394C69.8316 49.6804 70.862 49.9508 72.175 49.9508C72.9893 49.9508 73.7705 49.8771 74.5184 49.7295C75.2662 49.5656 76.0224 49.3197 76.787 48.9918V53.6148C76.0557 53.8771 75.2912 54.0738 74.4934 54.2049C73.7123 54.3525 72.8148 54.4263 71.801 54.4263Z" fill="white"/>
<path d="M29.1638 33.917V27.5115H32.3405C32.9446 27.5115 33.3993 27.664 33.7045 27.9691C34.016 28.2741 34.1717 28.7051 34.1717 29.2621C34.1717 29.6003 34.1094 29.8854 33.9848 30.1175C33.8665 30.3429 33.7077 30.5186 33.5083 30.6446C33.7824 30.7507 33.9973 30.9065 34.153 31.1121C34.3087 31.3176 34.3866 31.626 34.3866 32.0371C34.3866 32.6471 34.2184 33.1146 33.8821 33.4395C33.5457 33.7578 33.063 33.917 32.4339 33.917H29.1638ZM30.668 30.1175H31.892C32.1536 30.1175 32.3436 30.0545 32.4619 29.9285C32.5803 29.8025 32.6394 29.6268 32.6394 29.4013C32.6394 29.156 32.5803 28.9736 32.4619 28.8543C32.3436 28.7283 32.1287 28.6653 31.8172 28.6653H30.668V30.1175ZM30.668 32.7731H32.0415C32.3155 32.7731 32.518 32.7134 32.6488 32.5941C32.7858 32.4747 32.8543 32.2625 32.8543 31.9575C32.8543 31.7122 32.7889 31.5298 32.6581 31.4105C32.5273 31.2845 32.3031 31.2215 31.9854 31.2215H30.668V32.7731Z" fill="white"/>
<path d="M36.5133 34.0164C36.0275 34.0164 35.6786 33.9037 35.4669 33.6782C35.2551 33.4528 35.1492 33.0914 35.1492 32.5941V27.2131H36.6534V32.435C36.6534 32.5875 36.6815 32.6936 36.7375 32.7532C36.7998 32.8063 36.8901 32.8328 37.0085 32.8328C37.1766 32.8328 37.3261 32.8096 37.4569 32.7632V33.8473C37.3137 33.907 37.1704 33.9501 37.0272 33.9766C36.8901 34.0032 36.7188 34.0164 36.5133 34.0164Z" fill="white"/>
<path d="M40.331 34.0164C39.4777 34.0164 38.8486 33.8075 38.4437 33.3898C38.0389 32.9654 37.8364 32.3554 37.8364 31.5597C37.8364 30.7706 38.0389 30.1639 38.4437 29.7395C38.8548 29.3151 39.4839 29.1029 40.331 29.1029C41.1843 29.1029 41.8134 29.3151 42.2183 29.7395C42.6294 30.1639 42.835 30.7706 42.835 31.5597C42.835 32.3554 42.6325 32.9654 42.2277 33.3898C41.8228 33.8075 41.1906 34.0164 40.331 34.0164ZM40.331 32.7632C40.6798 32.7632 40.929 32.6703 41.0785 32.4847C41.228 32.299 41.3027 31.9907 41.3027 31.5597C41.3027 31.1287 41.228 30.8203 41.0785 30.6347C40.929 30.449 40.6798 30.3562 40.331 30.3562C39.9884 30.3562 39.7424 30.449 39.5929 30.6347C39.4434 30.8203 39.3687 31.1287 39.3687 31.5597C39.3687 31.9907 39.4434 32.299 39.5929 32.4847C39.7424 32.6703 39.9884 32.7632 40.331 32.7632Z" fill="white"/>
<path d="M45.9339 34.0164C45.1428 34.0164 44.5231 33.8109 44.0746 33.3997C43.6323 32.9886 43.4112 32.3753 43.4112 31.5597C43.4112 30.7308 43.6417 30.1141 44.1026 29.7097C44.5698 29.3052 45.1895 29.1029 45.9619 29.1029C46.2858 29.1029 46.5661 29.1295 46.8028 29.1825C47.0457 29.2289 47.2792 29.3085 47.5035 29.4212V30.5551C47.1547 30.3761 46.7467 30.2865 46.2795 30.2865C45.8435 30.2865 45.5103 30.3794 45.2798 30.565C45.0556 30.7507 44.9435 31.0823 44.9435 31.5597C44.9435 32.0039 45.0494 32.3289 45.2612 32.5344C45.4729 32.7333 45.8093 32.8328 46.2702 32.8328C46.7249 32.8328 47.1391 32.7333 47.5128 32.5344V33.718C47.2886 33.8241 47.0457 33.9004 46.7841 33.9468C46.5287 33.9932 46.2453 34.0164 45.9339 34.0164Z" fill="white"/>
<path d="M48.2787 33.917V27.2131H49.783V30.7142L51.2311 29.2024H52.9409L51.1657 31.1618L53.0437 33.917H51.446L50.2221 32.0073L49.783 32.4648V33.917H48.2787Z" fill="white"/>
<path d="M53.2835 33.917L55.5819 27.5115H57.2075L59.5059 33.917H57.9363L57.3944 32.4648H55.3857L54.8531 33.917H53.2835ZM55.5912 31.2812H57.1889L56.3854 29.0532L55.5912 31.2812Z" fill="white"/>
<path d="M61.4622 34.0164C60.939 34.0164 60.531 33.8606 60.2383 33.5489C59.9455 33.2307 59.7991 32.7698 59.7991 32.1664V29.2024H61.3034V32.0769C61.3034 32.3421 61.3625 32.5377 61.4809 32.6637C61.6055 32.7831 61.7892 32.8427 62.0321 32.8427C62.2128 32.8427 62.3841 32.803 62.546 32.7234C62.7079 32.6438 62.8419 32.5444 62.9478 32.425V29.2024H64.452V33.917H63.0505L63.0038 33.5191C62.8232 33.665 62.6052 33.7843 62.3498 33.8772C62.0944 33.97 61.7986 34.0164 61.4622 34.0164Z" fill="white"/>
<path d="M67.2639 34.0164C66.8341 34.0164 66.4666 33.9435 66.1614 33.7976C65.8562 33.6517 65.6226 33.413 65.4607 33.0815C65.2987 32.7433 65.2177 32.2924 65.2177 31.7288C65.2177 31.1585 65.3112 30.6811 65.498 30.2965C65.6849 29.9053 65.9403 29.6102 66.2642 29.4113C66.5943 29.2057 66.9711 29.1029 67.3947 29.1029C67.6251 29.1029 67.8307 29.1295 68.0113 29.1825C68.1982 29.2356 68.3726 29.3151 68.5345 29.4212V27.2131H70.0388V33.917H68.7401L68.656 33.5191C68.4754 33.6849 68.2729 33.8109 68.0487 33.8971C67.8245 33.9766 67.5628 34.0164 67.2639 34.0164ZM67.6937 32.8527C68.0238 32.8527 68.3041 32.7333 68.5345 32.4946V30.5849C68.3228 30.3794 68.0518 30.2766 67.7217 30.2766C67.404 30.2766 67.1611 30.4059 66.9929 30.6645C66.831 30.9165 66.75 31.2745 66.75 31.7387C66.75 32.1896 66.8279 32.488 66.9836 32.6339C67.1455 32.7798 67.3822 32.8527 67.6937 32.8527Z" fill="white"/>
<path d="M71.2875 28.4564V27.2529H72.9225V28.4564H71.2875ZM71.409 33.917V30.386H70.755L70.8858 29.2024H72.9132V33.917H71.409Z" fill="white"/>
<path d="M75.6936 34.0164C75.1455 34.0164 74.7406 33.8672 74.479 33.5688C74.2237 33.2704 74.096 32.8593 74.096 32.3355V30.4158H73.498V29.2024H74.096V28.2177L75.6002 27.79V29.2024H76.6747L76.6092 30.4158H75.6002V32.2261C75.6002 32.4515 75.6531 32.6107 75.759 32.7035C75.8649 32.7897 76.0238 32.8328 76.2355 32.8328C76.4162 32.8328 76.5999 32.7996 76.7868 32.7333V33.8175C76.494 33.9501 76.1296 34.0164 75.6936 34.0164Z" fill="white"/>
<path d="M83.5901 43.543L91.1144 50.3442L93.0123 48.6165L85.5014 41.8275M112.974 34.0164L98.7329 46.901L93.1334 41.8275L91.2086 43.543L98.7329 50.3442L114.885 35.744M107.267 35.744L105.369 34.0164L96.8215 41.7423L98.7329 43.4578L107.267 35.744Z" fill="#00DE24"/>
<defs>
<filter id="filter0_d_49_22" x="0" y="7.49182" width="138.606" height="77.3771" filterUnits="userSpaceOnUse" color-interpolation-filters="sRGB">
<feFlood flood-opacity="0" result="BackgroundImageFix"/>
<feColorMatrix in="SourceAlpha" type="matrix" values="0 0 0 0 0 0 0 0 0 0 0 0 0 0 0 0 0 0 127 0" result="hardAlpha"/>
<feOffset dy="4"/>
<feGaussianBlur stdDeviation="10.5"/>
<feComposite in2="hardAlpha" operator="out"/>
<feColorMatrix type="matrix" values="0 0 0 0 0 0 0 0 0 0 0 0 0 0 0 0 0 0 0.25 0"/>
<feBlend mode="normal" in2="BackgroundImageFix" result="effect1_dropShadow_49_22"/>
<feBlend mode="normal" in="SourceGraphic" in2="effect1_dropShadow_49_22" result="shape"/>
</filter>
<linearGradient id="paint0_linear_49_22" x1="103.32" y1="13.6066" x2="103.32" y2="59.8689" gradientUnits="userSpaceOnUse">
<stop stop-color="#00B51D"/>
<stop offset="1" stop-color="#006B11"/>
</linearGradient>
<linearGradient id="paint1_linear_49_22" x1="35.2868" y1="13.6066" x2="35.2868" y2="59.8689" gradientUnits="userSpaceOnUse">
<stop stop-color="#00B51D"/>
<stop offset="1" stop-color="#006B11"/>
</linearGradient>
<linearGradient id="paint2_linear_49_22" x1="69.3032" y1="83" x2="69.3032" y2="0" gradientUnits="userSpaceOnUse">
<stop stop-color="#740000"/>
<stop offset="1" stop-color="#FF1616"/>
</linearGradient>
<linearGradient id="paint3_linear_49_22" x1="69.3033" y1="24.4918" x2="69.3033" y2="59.8689" gradientUnits="userSpaceOnUse">
<stop stop-color="#2D2D2D"/>
<stop offset="1"/>
</linearGradient>
</defs>
</svg>
