<svg width="51" height="69" viewBox="0 0 51 69" fill="none" xmlns="http://www.w3.org/2000/svg">
<path d="M24.0272 44.8221H25.778C27.7847 44.8221 27.8747 44.8014 28.1653 44.2627C28.4352 43.7585 28.2484 43.1369 27.7502 42.8814C27.5149 42.764 27.328 42.7502 25.7572 42.7502H24.0272V44.8221Z" fill="url(#paint0_linear_107_933)"/>
<path d="M24.0272 49.1733V47.0323H26.2624C28.4422 47.0323 28.5044 47.0392 28.802 47.1843C29.1549 47.3708 29.3556 47.6954 29.3556 48.1028C29.3556 48.5103 29.1549 48.8349 28.802 49.0145C28.5044 49.1664 28.4422 49.1733 26.2624 49.1733H24.0272Z" fill="url(#paint1_linear_107_933)"/>
<path fill-rule="evenodd" clip-rule="evenodd" d="M18.3596 39.5319C19.9858 37.7293 22.0065 36.6657 24.4423 36.3273C25.1551 36.2306 26.802 36.2997 27.5909 36.4654C29.3762 36.8453 30.9471 37.6741 32.2826 38.9517C33.1753 39.8012 33.7635 40.5886 34.2687 41.6107C34.7669 42.619 34.9953 43.2959 35.1752 44.3249C35.6388 47.053 34.9053 49.857 33.1615 52.0187C31.6183 53.9318 29.4593 55.1473 26.9335 55.5341C26.1792 55.6515 24.2831 55.5755 23.5427 55.4028C21.6535 54.9608 20.1104 54.1113 18.7679 52.7646C17.3908 51.3971 16.512 49.781 16.0968 47.861C15.9169 47.0323 15.9099 44.8982 16.0899 44.0625C16.4566 42.3428 17.2524 40.7681 18.3596 39.5319ZM24.0133 39.8219C23.9925 39.0208 23.9164 38.8551 23.4735 38.5512C22.996 38.2335 22.3386 38.4061 21.9719 38.9448C21.8335 39.152 21.8127 39.2694 21.8127 39.8565V40.5402H21.1276C20.5394 40.5402 20.4218 40.5609 20.2142 40.6991C19.4461 41.217 19.4807 42.1909 20.2903 42.5914C20.5394 42.7226 20.7124 42.7503 21.2037 42.7503H21.8127V49.1732H21.1484C20.1104 49.1732 19.7367 49.4357 19.6813 50.2023C19.6606 50.52 19.6813 50.6305 19.8197 50.8239C20.0896 51.2245 20.3664 51.3419 21.1276 51.3695L21.7989 51.3971L21.8265 52.1016C21.8473 52.7508 21.8611 52.8336 22.0341 53.0547C22.5393 53.7108 23.5565 53.6141 23.8887 52.882C23.9925 52.6679 24.0271 52.4331 24.0271 51.9842V51.3833H26.1031V51.8806C26.1031 52.5367 26.2069 52.882 26.4698 53.1652C26.8712 53.5795 27.4802 53.6279 27.9023 53.2688C28.2483 52.9856 28.3175 52.7715 28.3175 52.0463V51.3902L28.5804 51.3488C29.5008 51.2037 30.0752 50.9275 30.6288 50.3681C31.0578 49.9329 31.3138 49.4909 31.4661 48.9315C31.7913 47.6607 31.3415 46.3416 30.3035 45.5336L30.1028 45.3816L30.2551 44.981C30.5942 44.0832 30.5734 43.2475 30.1928 42.4395C29.9298 41.8663 29.3209 41.2309 28.7673 40.9477L28.3175 40.7129V39.967C28.3175 39.1175 28.2275 38.8412 27.8815 38.5926C27.5563 38.3578 26.9681 38.3371 26.6636 38.5512C26.2622 38.8205 26.1446 39.0968 26.1169 39.8634L26.0892 40.5402H24.0409L24.0133 39.8219Z" fill="url(#paint2_linear_107_933)"/>
<path fill-rule="evenodd" clip-rule="evenodd" d="M23.7223 32.0867C18.2417 32.8257 13.6537 36.79 12.1313 42.0941C11.7646 43.3649 11.6192 44.4285 11.6123 45.8581C11.6054 47.267 11.6954 48.0406 11.986 49.2423C12.6296 51.846 13.9236 54.0975 15.8681 55.976C16.9892 57.0535 18.0272 57.7924 19.3765 58.4624C24.8779 61.1904 31.4796 60.0439 35.7285 55.6238C39.0708 52.1361 40.3995 47.1842 39.2231 42.55C38.0882 38.0884 34.8704 34.4902 30.5385 32.8395C29.715 32.5287 28.4002 32.2041 27.4383 32.0798C26.4765 31.9555 24.6634 31.9555 23.7223 32.0867ZM26.7325 34.1172C28.8154 34.3313 30.7876 35.0565 32.4692 36.2444C33.4034 36.9005 34.8081 38.3232 35.424 39.228C36.9118 41.438 37.6038 43.8138 37.5 46.4107C37.2786 52.2466 32.829 57.0327 26.9747 57.7441C26.0197 57.8615 24.1929 57.7855 23.3071 57.5991C18.1448 56.5078 14.3596 52.3916 13.7783 47.2394C13.6745 46.2932 13.7368 44.5874 13.9167 43.7102C14.4218 41.2308 15.5498 39.1796 17.3974 37.3909C19.8886 34.9805 23.3279 33.7788 26.7325 34.1172Z" fill="url(#paint3_linear_107_933)"/>
<path fill-rule="evenodd" clip-rule="evenodd" d="M17.6256 0.786632C17.3281 0.917854 17.0582 1.25627 17.0028 1.57396C16.9682 1.79497 17.0236 2.00907 17.3004 2.76878C18.1239 4.99264 18.6429 7.32011 18.8436 9.65448C18.9474 10.8976 18.8851 13.8812 18.7328 14.9862C18.3038 18.1287 17.4388 20.8774 16.041 23.5916C15.4528 24.7312 14.4978 26.299 14.221 26.5683C14.0826 26.7133 13.9996 26.7272 13.3491 26.7272C11.5776 26.7272 9.99289 25.8777 8.98257 24.3928C8.53969 23.7367 8.09681 23.5502 7.53629 23.785C7.24565 23.9024 6.99653 24.1925 6.35989 25.1525C3.73722 29.0822 1.83422 34.1239 1.12838 39.0206C0.886179 40.692 0.816979 41.7141 0.810059 43.6479C0.810059 45.6439 0.872339 46.3828 1.16298 48.0611C2.30478 54.6844 6.14537 60.5686 11.8128 64.3672C19.3418 69.4089 29.0505 69.9407 37.0985 65.7415C42.9321 62.7027 47.2778 57.5298 49.3054 51.2104C50.461 47.6053 50.7309 43.7239 50.1496 39.1449C49.2984 32.4733 46.3228 25.8777 41.901 20.8567C40.4547 19.2199 40.0049 18.8953 39.3959 19.061C39.0915 19.1439 38.8562 19.3856 38.3441 20.1799C37.7282 21.133 36.7663 22.0515 35.8183 22.604C35.3893 22.8596 34.4066 23.2394 34.4066 23.1496C34.4066 23.122 34.3997 22.2932 34.3789 21.3056C34.3443 18.9851 34.1783 17.8317 33.6108 15.7805C31.95 9.83405 27.7634 4.90977 22.0752 2.21626C21.0164 1.71209 18.2969 0.689941 18.0339 0.689941C17.9232 0.696848 17.7364 0.738287 17.6256 0.786632ZM27.5074 29.8696C32.9465 30.505 37.7351 33.8753 40.1502 38.772C40.7107 39.9184 41.0498 40.8025 41.3197 41.8729C42.42 46.1549 41.7557 50.6303 39.4582 54.3874C38.2334 56.3972 36.3235 58.331 34.3028 59.6156C30.0955 62.2883 24.7878 62.8685 20.1168 61.1764C15.6327 59.5465 12.0135 55.9551 10.3735 51.5005C8.49125 46.3828 9.34933 40.5953 12.6363 36.2373C14.3594 33.9513 16.8298 32.0382 19.4248 30.9815C20.3175 30.6224 21.5424 30.2425 22.3658 30.0768C23.8952 29.766 25.9227 29.6831 27.5074 29.8696Z" fill="url(#paint4_linear_107_933)"/>
<path d="M11.4259 1.86433C9.84122 2.13368 8.40187 2.88648 7.27391 4.05366C6.43659 4.91006 5.97295 5.63523 5.57159 6.69192L5.56565 6.70768C5.18407 7.72087 5.18382 7.72153 5.13563 11.8441L5.13549 11.8552C5.08027 16.0571 5.07989 16.0856 4.65123 17.1759C4.40903 17.8113 3.94539 18.5571 3.41947 19.1511C2.99043 19.6276 2.87279 19.9522 2.98351 20.3528C3.08039 20.705 3.44023 21.0366 3.80007 21.1056C4.14607 21.1747 5.38475 21.0296 6.03523 20.8501C8.27731 20.2354 10.2218 18.4605 11.0591 16.2642C11.4951 15.1039 11.5159 14.8967 11.5712 10.7045C11.5989 8.59809 11.6404 6.79551 11.6681 6.69882C12.111 5.24847 12.4293 4.64071 13.1836 3.81194C13.6057 3.3423 13.7441 3.03151 13.6887 2.67238C13.6334 2.33396 13.4881 2.11296 13.1974 1.93339C13.0106 1.82289 12.8653 1.79526 12.3601 1.80217C12.021 1.80907 11.5989 1.8367 11.4259 1.86433Z" fill="url(#paint5_linear_107_933)"/>
<path d="M38.6285 4.96532C38.6285 4.57856 38.8361 4.23324 39.1821 4.05367C39.3897 3.94317 39.535 3.92935 40.1509 3.96389C42.386 4.06748 44.6212 5.33136 45.8737 7.18228C46.8564 8.63953 47.2093 9.91722 47.2093 12.0513C47.2093 12.6936 47.2439 13.4257 47.2854 13.6743C47.4653 14.8139 48.0466 16.0225 48.8216 16.8927C49.2645 17.3969 49.3545 17.5695 49.3545 17.9356C49.3545 18.2809 49.1676 18.6193 48.877 18.7989C48.6625 18.937 48.5448 18.9577 48.0051 18.9439C46.1228 18.9094 44.2821 18.0875 42.905 16.6579C42.0539 15.7739 41.5695 14.9934 41.175 13.8815C40.8982 13.0873 40.836 12.6176 40.7737 10.8772C40.7322 9.45449 40.6906 9.05392 40.573 8.5981C40.3516 7.79695 39.881 6.8853 39.3412 6.22229C38.67 5.40042 38.6285 5.32445 38.6285 4.96532Z" fill="url(#paint6_linear_107_933)"/>
<defs>
<linearGradient id="paint0_linear_107_933" x1="25.628" y1="0.689941" x2="25.628" y2="68.5565" gradientUnits="userSpaceOnUse">
<stop stop-color="#FFD600"/>
<stop offset="1" stop-color="#FF9900"/>
</linearGradient>
<linearGradient id="paint1_linear_107_933" x1="25.628" y1="0.689941" x2="25.628" y2="68.5565" gradientUnits="userSpaceOnUse">
<stop stop-color="#FFD600"/>
<stop offset="1" stop-color="#FF9900"/>
</linearGradient>
<linearGradient id="paint2_linear_107_933" x1="25.628" y1="0.689941" x2="25.628" y2="68.5565" gradientUnits="userSpaceOnUse">
<stop stop-color="#FFD600"/>
<stop offset="1" stop-color="#FF9900"/>
</linearGradient>
<linearGradient id="paint3_linear_107_933" x1="25.628" y1="0.689941" x2="25.628" y2="68.5565" gradientUnits="userSpaceOnUse">
<stop stop-color="#FFD600"/>
<stop offset="1" stop-color="#FF9900"/>
</linearGradient>
<linearGradient id="paint4_linear_107_933" x1="25.628" y1="0.689941" x2="25.628" y2="68.5565" gradientUnits="userSpaceOnUse">
<stop stop-color="#FFD600"/>
<stop offset="1" stop-color="#FF9900"/>
</linearGradient>
<linearGradient id="paint5_linear_107_933" x1="25.628" y1="0.689941" x2="25.628" y2="68.5565" gradientUnits="userSpaceOnUse">
<stop stop-color="#FFD600"/>
<stop offset="1" stop-color="#FF9900"/>
</linearGradient>
<linearGradient id="paint6_linear_107_933" x1="25.628" y1="0.689941" x2="25.628" y2="68.5565" gradientUnits="userSpaceOnUse">
<stop stop-color="#FFD600"/>
<stop offset="1" stop-color="#FF9900"/>
</linearGradient>
</defs>
</svg>
