<svg width="17" height="16" viewBox="0 0 17 16" fill="none" xmlns="http://www.w3.org/2000/svg">
<path d="M1.7 1.77778H4.25L5.95 0H11.05L12.75 1.77778H15.3C15.7509 1.77778 16.1833 1.96508 16.5021 2.29848C16.8209 2.63187 17 3.08406 17 3.55556V14.2222C17 14.6937 16.8209 15.1459 16.5021 15.4793C16.1833 15.8127 15.7509 16 15.3 16H1.7C1.24913 16 0.81673 15.8127 0.497918 15.4793C0.179107 15.1459 0 14.6937 0 14.2222V3.55556C0 3.08406 0.179107 2.63187 0.497918 2.29848C0.81673 1.96508 1.24913 1.77778 1.7 1.77778ZM8.5 4.44444C7.37283 4.44444 6.29183 4.9127 5.4948 5.74619C4.69777 6.57969 4.25 7.71015 4.25 8.88889C4.25 10.0676 4.69777 11.1981 5.4948 12.0316C6.29183 12.8651 7.37283 13.3333 8.5 13.3333C9.62717 13.3333 10.7082 12.8651 11.5052 12.0316C12.3022 11.1981 12.75 10.0676 12.75 8.88889C12.75 7.71015 12.3022 6.57969 11.5052 5.74619C10.7082 4.9127 9.62717 4.44444 8.5 4.44444ZM8.5 6.22222C9.1763 6.22222 9.82491 6.50317 10.3031 7.00327C10.7813 7.50337 11.05 8.18165 11.05 8.88889C11.05 9.59613 10.7813 10.2744 10.3031 10.7745C9.82491 11.2746 9.1763 11.5556 8.5 11.5556C7.8237 11.5556 7.1751 11.2746 6.69688 10.7745C6.21866 10.2744 5.95 9.59613 5.95 8.88889C5.95 8.18165 6.21866 7.50337 6.69688 7.00327C7.1751 6.50317 7.8237 6.22222 8.5 6.22222Z" fill="#535353"/>
</svg>
