<svg width="16" height="11" viewBox="0 0 16 11" fill="none" xmlns="http://www.w3.org/2000/svg">
<path fill-rule="evenodd" clip-rule="evenodd" d="M5.77527 0.00565077C4.67783 0.120227 3.5218 0.527083 2.53087 1.14749C2.18197 1.36593 2.19285 1.35652 2.07514 1.54186C1.56397 2.34675 1.04997 3.55773 0.700485 4.78054C0.349817 6.00749 0.11875 7.33194 0.0183976 8.69016L0 8.93917L0.110931 9.05289C0.61853 9.57324 1.20065 9.9802 1.90925 10.3101C2.33238 10.5071 2.75397 10.6571 3.20961 10.7726C3.69865 10.8967 4.25955 10.9844 4.64469 10.9972L4.73008 11L5.02861 10.624C5.2736 10.3155 5.32381 10.2468 5.30857 10.2407C5.29834 10.2367 5.22863 10.212 5.15365 10.186C4.30442 9.89104 3.50744 9.4374 2.82532 8.86073C2.64826 8.71103 2.20269 8.28471 2.2233 8.28471C2.22682 8.28471 2.28674 8.32406 2.35646 8.37215C3.47382 9.14295 4.8013 9.64547 6.2621 9.85065C7.20562 9.98318 8.28833 10.0037 9.25805 9.90734C10.941 9.74018 12.4016 9.2289 13.6435 8.37215C13.7133 8.32406 13.7732 8.28471 13.7767 8.28471C13.7973 8.28471 13.3517 8.71103 13.1747 8.86073C12.4926 9.4374 11.6956 9.89104 10.8463 10.186C10.7714 10.212 10.7017 10.2367 10.6914 10.2407C10.6762 10.2468 10.7264 10.3155 10.9714 10.624L11.2699 11L11.3553 10.9972C11.4671 10.9935 11.7487 10.9676 11.8932 10.9478C13.0925 10.7835 14.2144 10.357 15.0981 9.72958C15.373 9.53442 15.6531 9.29477 15.8891 9.05289L16 8.93917L15.9816 8.69016C15.8813 7.33194 15.6502 6.00749 15.2995 4.78054C14.95 3.55773 14.436 2.34675 13.9249 1.54187C13.8095 1.36024 13.8189 1.36855 13.5128 1.17602C12.4954 0.536173 11.3286 0.112961 10.3121 0.0150501L10.1792 0.0022498L10.0929 0.165091C10.0454 0.254654 10.0066 0.331478 10.0066 0.335827C10.0066 0.340176 10.0618 0.357109 10.1293 0.373466C11.2874 0.654171 12.1147 1.02938 12.9129 1.63594C13.0969 1.77569 13.4201 2.03668 13.4201 2.04545C13.4201 2.04762 13.2495 1.96883 13.0411 1.87035C12.8327 1.77187 12.5762 1.65412 12.4713 1.60867C11.175 1.0474 10.102 0.791628 8.6925 0.70794C8.42514 0.692068 7.57486 0.692068 7.3075 0.70794C5.898 0.791628 4.82496 1.0474 3.52873 1.60867C3.42376 1.65412 3.16735 1.77187 2.95891 1.87035C2.75049 1.96883 2.57995 2.04774 2.57995 2.04572C2.57995 2.04093 2.8477 1.82166 2.96715 1.72862C3.11716 1.61177 3.40221 1.41244 3.57235 1.3054C3.8297 1.1435 4.02958 1.03521 4.33029 0.894753C4.82098 0.66557 5.31533 0.497689 5.86524 0.373476C5.93571 0.357563 5.99338 0.340795 5.99338 0.336229C5.99338 0.326427 5.81999 -0.0023985 5.8161 1.3201e-05C5.81464 0.000920165 5.79626 0.00345551 5.77527 0.00565077ZM5.8407 4.83674C6.5883 4.97362 7.05908 5.76729 6.85888 6.55324C6.6973 7.18751 6.13393 7.6115 5.53046 7.55298C5.30982 7.53158 5.13156 7.46611 4.94862 7.33928C4.45047 6.9939 4.24294 6.31553 4.45014 5.70984C4.52302 5.49678 4.6348 5.32234 4.7989 5.16561C4.98743 4.98552 5.19771 4.87712 5.44265 4.83373C5.52877 4.81847 5.75006 4.82014 5.8407 4.83674ZM10.6446 4.85219C10.8585 4.9076 11.0352 5.00711 11.2011 5.16561C11.4665 5.41908 11.6101 5.74381 11.6284 6.13199C11.6562 6.71886 11.3105 7.27882 10.7985 7.47638C10.5035 7.59019 10.1755 7.58451 9.89188 7.46068C9.23923 7.17572 8.92481 6.37552 9.18909 5.67204C9.3541 5.23277 9.71015 4.92424 10.1538 4.83605C10.2589 4.81516 10.537 4.82431 10.6446 4.85219Z" fill="#6C6C6C"/>
</svg>
