<svg width="24" height="16" viewBox="0 0 24 16" fill="none" xmlns="http://www.w3.org/2000/svg">
<path fill-rule="evenodd" clip-rule="evenodd" d="M8.90696 0.767563C7.39267 0.92566 5.79753 1.48706 4.4302 2.34312C3.94877 2.64454 3.96379 2.63155 3.80136 2.8873C3.09603 3.99792 2.38679 5.66889 1.90455 7.35616C1.42068 9.04918 1.10185 10.8767 0.963374 12.7508L0.937988 13.0944L1.09106 13.2514C1.79146 13.9694 2.59469 14.5309 3.57246 14.9861C4.15631 15.258 4.73803 15.4649 5.36675 15.6243C6.04155 15.7955 6.81551 15.9166 7.34694 15.9342L7.46477 15.9381L7.87669 15.4193C8.21474 14.9936 8.28402 14.8987 8.26299 14.8904C8.24887 14.8848 8.15269 14.8508 8.04923 14.8149C6.87742 14.4079 5.77771 13.7819 4.83649 12.9862C4.59217 12.7796 3.97736 12.1914 4.0058 12.1914C4.01066 12.1914 4.09333 12.2457 4.18954 12.312C5.73132 13.3756 7.56303 14.069 9.57872 14.3521C10.8806 14.535 12.3746 14.5633 13.7127 14.4304C16.0349 14.1997 18.0502 13.4942 19.764 12.312C19.8602 12.2457 19.9428 12.1914 19.9477 12.1914C19.9761 12.1914 19.3613 12.7796 19.117 12.9862C18.1758 13.7819 17.0761 14.4079 15.9043 14.8149C15.8008 14.8508 15.7046 14.8848 15.6905 14.8904C15.6695 14.8987 15.7388 14.9936 16.0768 15.4193L16.4887 15.9381L16.6066 15.9342C16.7608 15.9291 17.1493 15.8934 17.3488 15.8661C19.0035 15.6393 20.5517 15.0508 21.771 14.1851C22.1503 13.9158 22.5368 13.5851 22.8624 13.2514L23.0155 13.0944L22.9901 12.7508C22.8517 10.8767 22.5328 9.04918 22.0489 7.35616C21.5667 5.66889 20.8575 3.99792 20.1521 2.88731C19.993 2.63669 20.0059 2.64815 19.5835 2.38248C18.1797 1.4996 16.5698 0.915634 15.167 0.780532L14.9837 0.76287L14.8646 0.987565C14.7991 1.11115 14.7456 1.21715 14.7456 1.22315C14.7456 1.22916 14.8218 1.25252 14.9149 1.27509C16.5128 1.66242 17.6544 2.18014 18.7559 3.01711C19.0096 3.20995 19.4556 3.57007 19.4556 3.58217C19.4556 3.58516 19.2203 3.47644 18.9327 3.34056C18.6451 3.20467 18.2912 3.04219 18.1464 2.97948C16.3578 2.20502 14.8772 1.85209 12.9323 1.73661C12.5634 1.71471 11.3901 1.71471 11.0212 1.73661C9.07631 1.85209 7.59569 2.20502 5.80709 2.97948C5.66225 3.04219 5.30844 3.20467 5.02083 3.34056C4.73323 3.47644 4.49791 3.58533 4.49791 3.58254C4.49791 3.57593 4.86737 3.27337 5.03219 3.145C5.23919 2.98376 5.63251 2.70872 5.86728 2.56102C6.22238 2.33762 6.49818 2.18819 6.91311 1.99439C7.59019 1.67815 8.27232 1.4465 9.03111 1.2751C9.12835 1.25315 9.20792 1.23001 9.20792 1.22371C9.20792 1.21018 8.96868 0.756456 8.9633 0.759784C8.96129 0.761035 8.93593 0.764534 8.90696 0.767563ZM8.99725 7.43371C10.0288 7.62259 10.6784 8.71773 10.4022 9.80222C10.1792 10.6774 9.40186 11.2625 8.56917 11.1817C8.26472 11.1522 8.01874 11.0618 7.76631 10.8868C7.07895 10.4103 6.79259 9.47422 7.07849 8.63847C7.17905 8.34447 7.33329 8.10378 7.55972 7.88751C7.81987 7.63901 8.11002 7.48943 8.448 7.42956C8.56684 7.40851 8.87217 7.41082 8.99725 7.43371ZM15.6259 7.45503C15.921 7.5315 16.1648 7.6688 16.3938 7.88751C16.7599 8.23726 16.9581 8.68534 16.9834 9.22097C17.0217 10.0308 16.5447 10.8034 15.8382 11.076C15.4312 11.233 14.9786 11.2252 14.5873 11.0543C13.6867 10.6612 13.2528 9.557 13.6175 8.5863C13.8452 7.98018 14.3365 7.55445 14.9487 7.43276C15.0937 7.40393 15.4774 7.41656 15.6259 7.45503Z" fill="white"/>
</svg>
