<svg width="21" height="17" viewBox="0 0 21 17" fill="none" xmlns="http://www.w3.org/2000/svg">
<path d="M13.1695 1.07959C13.5758 0.558873 14.2712 0.148609 14.9549 0.0223735C15.2362 -0.0249647 15.9277 0.00659406 16.2168 0.0815462C16.5645 0.176223 17.0489 0.428693 17.338 0.673274C18.2678 1.44646 18.6272 2.71671 18.2483 3.91594C18.0021 4.69702 17.3732 5.38342 16.5996 5.71479C15.9824 5.9791 15.1815 6.01065 14.5564 5.79763C14.5355 5.79045 14.5159 5.78381 14.4975 5.77757C14.3716 5.73486 14.3013 5.71104 14.2547 5.66353C14.1958 5.60356 14.1747 5.50586 14.1269 5.28482L14.1267 5.28389C14.1206 5.25597 14.1142 5.22609 14.1072 5.19407C13.9314 4.41299 13.3961 3.59246 12.7437 3.11119L12.5093 2.94156L12.521 2.72065C12.5445 2.19993 12.8023 1.54903 13.1695 1.07959Z" fill="white"/>
<path d="M2.59798 2.22755C2.88708 1.09143 3.80906 0.231453 4.95373 0.0223759C5.23501 -0.0249623 5.9265 0.00659651 6.2156 0.0815487C6.5633 0.176225 7.04773 0.428695 7.33682 0.673276C7.96581 1.194 8.36038 1.99875 8.39164 2.81533L8.40336 3.12303L8.10645 3.41889C7.6142 3.90411 7.27822 4.49189 7.11414 5.14674L7.02819 5.48599L6.7391 5.6359C5.29752 6.37358 3.44965 5.71874 2.77769 4.23548C2.51594 3.65164 2.44171 2.83505 2.59798 2.22755Z" fill="white"/>
<path d="M9.86837 3.14276C8.39164 3.52541 7.43449 5.00868 7.69624 6.51561C7.92674 7.85291 8.93076 8.81546 10.2669 8.98114C11.6498 9.15077 12.9742 8.29079 13.4079 6.9456C13.5329 6.559 13.5758 5.90021 13.5055 5.48206C13.3063 4.33016 12.3765 3.35973 11.2396 3.11515C10.8646 3.03625 10.2239 3.04809 9.86837 3.14276Z" fill="white"/>
<path d="M0.722761 8.4683C1.23454 7.19806 2.44171 6.2868 3.80125 6.14084C4.17239 6.10139 6.76254 6.0935 6.89927 6.13295C6.98913 6.15662 7.00085 6.18423 7.02819 6.47221C7.0907 7.11916 7.44231 7.90419 7.88376 8.40124C8.01269 8.5472 8.11426 8.67343 8.10645 8.68132C8.09863 8.68921 7.96971 8.74049 7.81735 8.79967C6.48126 9.30461 5.44598 10.4526 5.08265 11.8254C4.96545 12.2672 4.91076 12.7997 4.90685 13.4664C4.90685 13.9122 4.89904 13.9516 4.84044 13.9359C4.80137 13.924 4.60213 13.9043 4.39898 13.8885C3.54731 13.8294 2.20731 13.5729 1.10562 13.2573C0.765735 13.1587 0.476638 13.0798 0.468825 13.0798C0.457105 13.0798 0.457105 12.2041 0.464918 11.135C0.465371 11.0738 0.465804 11.0144 0.466224 10.9567C0.476554 9.53918 0.479128 9.18589 0.575545 8.86104C0.607548 8.75321 0.649889 8.64852 0.706283 8.50907C0.711648 8.4958 0.717139 8.48223 0.722761 8.4683Z" fill="white"/>
<path d="M14.2048 6.24341C14.2048 6.49588 14.0642 7.08761 13.9314 7.40714C13.7829 7.77006 13.5641 8.12116 13.2985 8.43674C13.1891 8.56298 13.107 8.67344 13.1149 8.67738C13.1227 8.68527 13.275 8.74839 13.4508 8.8194C14.615 9.28094 15.5487 10.2435 15.9902 11.4269C16.2051 12.0029 16.2402 12.2356 16.2637 13.1311L16.2832 13.9556L16.7012 13.928C17.9553 13.8491 19.2054 13.5729 20.1352 13.1706L20.4595 13.0285L20.4438 11.1114C20.4434 11.0507 20.443 10.9919 20.4425 10.9348C20.4322 9.53947 20.4296 9.18748 20.3339 8.86356C20.3016 8.75428 20.2587 8.6482 20.2014 8.50632C20.1964 8.49393 20.1912 8.48127 20.186 8.4683C19.7602 7.40714 18.8108 6.559 17.717 6.25524C17.2677 6.13295 16.7833 6.09745 15.4472 6.09745H14.2048V6.24341Z" fill="white"/>
<path d="M5.9812 11.2849C6.48516 10.2514 7.45403 9.49791 8.58307 9.25728C8.91514 9.18627 9.11047 9.17838 10.5755 9.17838C12.353 9.17443 12.5484 9.19022 13.1539 9.40718C14.1033 9.74644 15.0213 10.6538 15.3651 11.5966C15.422 11.7529 15.4642 11.8669 15.4956 11.9839C15.5871 12.3244 15.5879 12.6898 15.5995 14.1962L15.6151 16.0779L15.3495 16.2002C14.5916 16.5474 13.5719 16.7998 12.3101 16.9497C11.7006 17.0247 9.95823 17.0129 9.28237 16.934C8.04003 16.7801 7.05945 16.575 5.95385 16.2318L5.57099 16.1134V14.5276C5.57099 12.4092 5.62178 12.0266 5.9812 11.2849Z" fill="white"/>
</svg>
