<svg width="19" height="17" viewBox="0 0 19 17" fill="none" xmlns="http://www.w3.org/2000/svg">
<path d="M11.5488 0.141323C8.71488 0.899654 7.76707 4.53965 9.84277 6.62506C11.6815 8.45453 14.923 7.95214 16.0509 5.63923C17.539 2.59642 14.8093 -0.730759 11.5488 0.141323Z" fill="white"/>
<path d="M3.34081 4.00881L3.01856 4.3311V6.24589H1.10398L0.781727 6.56818C0.506863 6.84308 0.459473 6.95683 0.459473 7.33599C0.459473 7.71516 0.506863 7.82891 0.781727 8.1038L1.10398 8.42609H3.01856V10.3409L3.34081 10.6632C3.61567 10.9381 3.72941 10.9855 4.11801 10.9855C4.96156 10.976 5.19851 10.6158 5.19851 9.33609V8.42609H6.10841C7.38795 8.42609 7.74812 8.18911 7.7576 7.35495C7.7576 6.95683 7.71021 6.84308 7.43534 6.56818L7.11309 6.24589H5.19851V4.3311L4.87626 4.00881C4.6014 3.73392 4.48766 3.68652 4.10853 3.68652C3.72941 3.68652 3.61567 3.73392 3.34081 4.00881Z" fill="white"/>
<path d="M7.19839 11.6016C7.47326 10.6348 8.08933 9.81007 8.93288 9.26028C9.24566 9.06121 9.52052 8.90955 9.54896 8.92851C9.93756 9.13705 10.6958 9.4309 11.255 9.57309C12.5061 9.89538 13.9184 9.75319 15.0747 9.19392L15.6623 8.91903L16.0414 9.10861C16.6101 9.40246 17.4442 10.2935 17.7475 10.9286C18.0224 11.5068 18.3067 13.2415 18.4299 15.1563C18.4868 16.0189 18.4773 16.0663 18.2593 16.2654C18.0224 16.4929 17.3305 16.6635 15.814 16.872C14.6197 17.0427 10.5631 17.0427 9.36887 16.872C7.369 16.5971 6.89509 16.436 6.71501 15.962C6.62971 15.744 7.01831 12.1988 7.19839 11.6016Z" fill="white"/>
</svg>
