<svg width="20" height="18" viewBox="0 0 20 18" fill="none" xmlns="http://www.w3.org/2000/svg">
<path d="M10.0698 0C8.80138 0 7.54537 0.237749 6.3735 0.699674C5.20162 1.1616 4.13683 1.83865 3.23992 2.69218C1.42852 4.41595 0.410889 6.75388 0.410889 9.19166C0.410889 13.2544 3.183 16.7013 7.01759 17.9237C7.50053 17.9973 7.65507 17.7123 7.65507 17.4642C7.65507 17.2528 7.65507 16.6737 7.65507 15.9108C4.97956 16.4623 4.40968 14.6791 4.40968 14.6791C3.96537 13.6129 3.33754 13.3279 3.33754 13.3279C2.45858 12.758 3.40515 12.7764 3.40515 12.7764C4.37104 12.8408 4.88297 13.7232 4.88297 13.7232C5.72329 15.1203 7.14315 14.7067 7.69371 14.4861C7.78064 13.8886 8.03177 13.4842 8.30222 13.2544C6.15794 13.0246 3.90742 12.2341 3.90742 8.73208C3.90742 7.71181 4.27445 6.89375 4.90228 6.24114C4.8057 6.01135 4.46763 5.05542 4.99887 3.81454C4.99887 3.81454 5.81022 3.56637 7.65507 4.75209C8.41813 4.54987 9.2488 4.44877 10.0698 4.44877C10.8908 4.44877 11.7215 4.54987 12.4845 4.75209C14.3294 3.56637 15.1407 3.81454 15.1407 3.81454C15.672 5.05542 15.3339 6.01135 15.2373 6.24114C15.8652 6.89375 16.2322 7.71181 16.2322 8.73208C16.2322 12.2433 13.972 13.0154 11.8181 13.2452C12.1658 13.5301 12.4845 14.0908 12.4845 14.9456C12.4845 16.1773 12.4845 17.17 12.4845 17.4642C12.4845 17.7123 12.6391 18.0065 13.1317 17.9237C16.9663 16.6921 19.7287 13.2544 19.7287 9.19166C19.7287 7.9846 19.4789 6.78935 18.9935 5.67417C18.5081 4.55898 17.7966 3.5457 16.8997 2.69218C16.0028 1.83865 14.938 1.1616 13.7661 0.699674C12.5942 0.237749 11.3382 0 10.0698 0Z" fill="white"/>
</svg>
