<svg width="14" height="13" viewBox="0 0 14 13" fill="none" xmlns="http://www.w3.org/2000/svg">
<path d="M7 0C6.08075 0 5.17049 0.172302 4.32122 0.507067C3.47194 0.841832 2.70026 1.33251 2.05025 1.95107C0.737498 3.20032 0 4.89467 0 6.66138C0 9.6057 2.009 12.1037 4.788 12.9897C5.138 13.043 5.25 12.8365 5.25 12.6566C5.25 12.5034 5.25 12.0837 5.25 11.5308C3.311 11.9305 2.898 10.6382 2.898 10.6382C2.576 9.8655 2.121 9.65899 2.121 9.65899C1.484 9.24599 2.17 9.25931 2.17 9.25931C2.87 9.30594 3.241 9.94543 3.241 9.94543C3.85 10.958 4.879 10.6582 5.278 10.4983C5.341 10.0653 5.523 9.77224 5.719 9.6057C4.165 9.43917 2.534 8.86629 2.534 6.32831C2.534 5.58889 2.8 4.99603 3.255 4.52307C3.185 4.35654 2.94 3.66376 3.325 2.76447C3.325 2.76447 3.913 2.58461 5.25 3.44393C5.803 3.29738 6.405 3.22411 7 3.22411C7.595 3.22411 8.197 3.29738 8.75 3.44393C10.087 2.58461 10.675 2.76447 10.675 2.76447C11.06 3.66376 10.815 4.35654 10.745 4.52307C11.2 4.99603 11.466 5.58889 11.466 6.32831C11.466 8.87295 9.828 9.43251 8.267 9.59904C8.519 9.80554 8.75 10.2119 8.75 10.8314C8.75 11.724 8.75 12.4434 8.75 12.6566C8.75 12.8365 8.862 13.0496 9.219 12.9897C11.998 12.0971 14 9.6057 14 6.66138C14 5.78659 13.8189 4.92037 13.4672 4.11218C13.1154 3.30398 12.5998 2.56964 11.9497 1.95107C11.2997 1.33251 10.5281 0.841832 9.67878 0.507067C8.8295 0.172302 7.91925 0 7 0Z" fill="#6C6C6C"/>
</svg>
