<svg width="18" height="10" viewBox="0 0 18 10" fill="none" xmlns="http://www.w3.org/2000/svg">
<path d="M1.63636 6.66667L2.04545 6.725L5.78454 2.91667C5.63727 2.375 5.77636 1.75833 6.21 1.325C6.84818 0.666667 7.87909 0.666667 8.51727 1.325C8.95091 1.75833 9.09 2.375 8.94273 2.91667L11.0455 5.05833L11.4545 5C11.6018 5 11.7409 5 11.8636 5.05833L14.7845 2.08333C14.7273 1.95833 14.7273 1.81667 14.7273 1.66667C14.7273 1.22464 14.8997 0.800716 15.2066 0.488155C15.5134 0.175595 15.9296 0 16.3636 0C16.7976 0 17.2138 0.175595 17.5207 0.488155C17.8276 0.800716 18 1.22464 18 1.66667C18 2.10869 17.8276 2.53262 17.5207 2.84518C17.2138 3.15774 16.7976 3.33333 16.3636 3.33333C16.2164 3.33333 16.0773 3.33333 15.9545 3.275L13.0336 6.25C13.0909 6.375 13.0909 6.51667 13.0909 6.66667C13.0909 7.10869 12.9185 7.53262 12.6116 7.84518C12.3048 8.15774 11.8885 8.33333 11.4545 8.33333C11.0206 8.33333 10.6043 8.15774 10.2975 7.84518C9.99058 7.53262 9.81818 7.10869 9.81818 6.66667L9.87545 6.25L7.77273 4.10833C7.51091 4.16667 7.21636 4.16667 6.95455 4.10833L3.21545 7.91667L3.27273 8.33333C3.27273 8.77536 3.10033 9.19928 2.79345 9.51184C2.48657 9.8244 2.07035 10 1.63636 10C1.20237 10 0.786158 9.8244 0.47928 9.51184C0.172402 9.19928 0 8.77536 0 8.33333C0 7.89131 0.172402 7.46738 0.47928 7.15482C0.786158 6.84226 1.20237 6.66667 1.63636 6.66667Z" fill="#535353"/>
</svg>
