<svg width="21" height="21" viewBox="0 0 21 21" fill="none" xmlns="http://www.w3.org/2000/svg">
<path d="M9.69088 0.0144863C7.6491 0.213943 6.07733 0.776965 4.46513 1.88281C3.8056 2.33727 2.96159 3.09975 2.45873 3.69812C1.32413 5.05139 0.54835 6.63695 0.192049 8.32854C0.0379044 9.05567 0 9.50256 0 10.5503C0 11.4365 0.0176887 11.6688 0.128875 12.3177C0.692386 15.5898 2.83019 18.4503 5.81453 19.9223C7.0022 20.5105 8.2025 20.8489 9.51652 20.9675C10.1533 21.0231 11.3031 21.0054 11.8514 20.9296C12.8622 20.7883 13.9715 20.4853 14.6361 20.1672C15.0885 19.9526 15.3513 19.5435 15.3513 19.0613C15.3513 18.7331 15.2502 18.4705 15.0379 18.2332C14.7953 17.963 14.5098 17.8419 14.1257 17.8419C13.9261 17.8393 13.8679 17.852 13.6456 17.9327C12.3543 18.4099 11.624 18.5564 10.502 18.5564C9.47861 18.5564 8.60934 18.4024 7.66173 18.0514C5.19542 17.1425 3.27494 14.9813 2.65583 12.4161C2.24646 10.7119 2.39555 8.90923 3.08289 7.30601C3.72979 5.7962 4.89471 4.46565 6.32244 3.6047C7.1058 3.13257 7.9498 2.79678 8.8216 2.61247C9.46851 2.47613 9.79448 2.44331 10.4995 2.44331C12.5034 2.44583 14.3329 3.13762 15.8465 4.46817C16.8548 5.35689 17.623 6.49303 18.0955 7.79581C18.4771 8.84107 18.6414 10.1388 18.5352 11.2522C18.4746 11.8935 18.3204 12.2975 18.045 12.5398C17.81 12.7469 17.4107 12.8731 17.0014 12.8731C16.5945 12.8731 16.2862 12.7494 16.0083 12.4692C15.7101 12.1738 15.5307 11.8304 15.422 11.3482C15.374 11.131 15.3689 11.025 15.3639 9.3132C15.3588 8.06849 15.3487 7.47012 15.3285 7.38428C15.23 6.97021 14.8989 6.62685 14.4744 6.49808C14.3354 6.45516 13.9993 6.45011 13.8401 6.48546C13.782 6.50061 13.6734 6.53848 13.6026 6.57383L13.4712 6.63695L13.3802 6.5713C12.7915 6.13704 12.1243 5.85679 11.346 5.71541C10.9948 5.64976 10.1786 5.63461 9.82228 5.68763C7.7527 5.99313 6.14303 7.51304 5.72103 9.56567C5.66544 9.82572 5.66038 9.92167 5.66038 10.4998C5.66038 11.1033 5.66544 11.1639 5.72861 11.4592C5.97625 12.6055 6.57009 13.5775 7.47474 14.3097C8.15954 14.8626 9.05914 15.2312 9.96379 15.3247C10.3176 15.36 10.9619 15.3423 11.2702 15.2868C12.1926 15.1202 13.1604 14.6556 13.8174 14.0648C13.8679 14.0168 13.9109 13.9891 13.9109 14.0042C13.9109 14.0497 14.4314 14.5041 14.6513 14.6506C15.4978 15.2111 16.4833 15.4332 17.4992 15.2944C18.6287 15.1378 19.6648 14.4839 20.3016 13.5245C20.6579 12.9842 20.8676 12.3884 20.9662 11.636C21.0167 11.2421 21.0091 9.86612 20.9535 9.36874C20.764 7.68472 20.2055 6.12694 19.2782 4.71055C18.6237 3.71074 17.7595 2.79678 16.7739 2.05702C15.2578 0.920876 13.4181 0.213942 11.5128 0.0346832C11.1388 0.00186127 9.96632 -0.0132861 9.69088 0.0144863ZM11.0226 8.1518C11.2677 8.19978 11.6366 8.35631 11.8514 8.50527C12.0334 8.62899 12.3038 8.89409 12.4427 9.08344C12.746 9.49498 12.9026 9.98479 12.9026 10.5251C12.9026 11.179 12.6474 11.7673 12.1648 12.2318C11.9323 12.4515 11.7984 12.5449 11.5027 12.6838C11.1009 12.8731 10.7396 12.9362 10.2973 12.8958C9.63781 12.8352 9.0364 12.5197 8.63461 12.0223C8.41982 11.7572 8.21513 11.3431 8.14943 11.03C8.09637 10.7877 8.11153 10.1034 8.11153 10.1034C8.11153 10.1034 9.08441 8.30582 10.0826 8.12908C10.4035 8.07101 10.6435 8.07859 11.0226 8.1518Z" fill="white"/>
</svg>
