<svg width="80" height="69" viewBox="0 0 80 69" fill="none" xmlns="http://www.w3.org/2000/svg">
<path d="M66.0815 1.32056C65.9775 1.51778 65.7903 1.78764 65.6759 1.92258C65.5511 2.05751 65.3431 2.37928 65.1975 2.64915C65.0519 2.91902 64.8543 3.2304 64.7607 3.3342C64.6567 3.44837 64.5735 3.56255 64.5735 3.60407C64.5735 3.6871 63.9391 4.7043 63.8455 4.78734C63.8039 4.81847 63.6167 5.1091 63.4191 5.43087C63.2319 5.76301 63.0343 6.03288 62.9927 6.03288C62.9407 6.03288 62.9095 6.09516 62.9095 6.16782C62.9095 6.25085 62.7223 6.57262 62.4935 6.90477C62.2647 7.22653 62.0775 7.53792 62.0775 7.6002C62.0775 7.65209 62.0151 7.72475 61.9319 7.75589C61.8487 7.78703 61.7551 7.91158 61.7239 8.03614C61.6927 8.17107 61.5887 8.36828 61.4847 8.48246C61.2663 8.72119 61.0687 9.03257 60.9647 9.25054C60.9335 9.33358 60.7983 9.54117 60.6735 9.71762C60.5591 9.8837 60.2991 10.2885 60.1119 10.5999L60.0862 10.6405C59.8991 10.9353 59.7357 11.1929 59.6959 11.2227C59.5919 11.3057 59.3735 11.669 59.3111 11.8662C59.2695 11.97 59.2175 12.053 59.1759 12.053C59.1343 12.053 59.0199 12.2295 58.9055 12.4371C58.7911 12.655 58.6767 12.8523 58.6455 12.8834C58.4895 13.0391 58.1255 13.6203 58.1255 13.7138C58.1255 13.7657 58.0839 13.8175 58.0319 13.8175C57.9799 13.8175 57.9175 13.9006 57.8759 13.994C57.8135 14.212 57.6159 14.5234 57.4287 14.731C57.3559 14.8036 57.2935 14.9282 57.2935 15.0112C57.2935 15.0839 57.2623 15.1669 57.2207 15.1877C57.0959 15.2395 56.5655 15.9765 56.5655 16.0907C56.5655 16.1426 56.5031 16.2567 56.4303 16.3294C56.2223 16.5474 55.6295 17.5127 55.6295 17.6372C55.6295 17.6891 55.5879 17.7618 55.5463 17.7825C55.4943 17.7929 55.1407 18.3119 54.7351 18.9243C54.34 19.5471 53.9655 20.0453 53.9032 20.0453C53.768 20.0453 53.5496 19.3706 53.5496 18.9658C53.5496 18.8205 53.508 18.6959 53.456 18.6959C53.404 18.6959 53.3312 18.4157 53.2896 18.0732C53.248 17.7306 53.1752 17.4504 53.1232 17.4504C53.0712 17.4504 53.0296 17.3466 53.0296 17.2117C53.0296 17.0871 52.9568 16.7965 52.8736 16.5681C52.7904 16.3398 52.728 15.9973 52.7176 15.8104C52.7176 15.634 52.676 15.4783 52.6136 15.4783C52.5616 15.4783 52.5096 15.3745 52.5096 15.2395C52.4992 15.115 52.4056 15.2914 52.3016 15.634C52.1872 15.9765 52.052 16.3294 52 16.4124C51.948 16.5059 51.8752 16.7342 51.8336 16.9314C51.792 17.1286 51.7296 17.3362 51.6984 17.3985C51.5736 17.5957 51.272 18.5403 51.2616 18.7167C51.2616 18.8205 51.22 18.9035 51.1576 18.9035C51.1056 18.9035 51.0536 18.997 51.0536 19.1215C51.0536 19.2461 50.9912 19.4848 50.9184 19.6612C50.8352 19.8481 50.6896 20.2529 50.5856 20.5643C50.4816 20.8757 50.3568 21.1767 50.3152 21.2286C50.2632 21.2908 50.2216 21.4154 50.2216 21.5088C50.2216 21.6541 49.9304 22.526 49.504 23.6262C49.3064 24.1452 49.1504 24.5915 49.0672 24.9756C49.0048 25.2039 48.9216 25.4323 48.8592 25.4842C48.8072 25.5465 48.7656 25.6918 48.7656 25.8267C48.7656 25.9616 48.724 26.0654 48.6616 26.0654C48.6096 26.0654 48.5576 26.1485 48.5576 26.2523C48.5576 26.3561 48.3912 26.9062 48.1832 27.477C47.84 28.4216 47.6216 29.0859 47.6216 29.1585C47.6216 29.1689 47.7048 29.1378 47.8088 29.0755C48.2456 28.8368 50.0032 28.0375 50.1072 28.0375C50.1696 28.0375 50.2216 27.9856 50.2216 27.9337C50.2216 27.8715 50.2944 27.83 50.3776 27.83C50.4608 27.83 50.6168 27.7884 50.7208 27.7365C51.3032 27.4252 51.8128 27.2072 51.9376 27.2072C52.0208 27.2072 52.0936 27.1657 52.0936 27.1138C52.0936 27.0619 52.2392 26.9892 52.4056 26.9477C52.5824 26.9062 52.7176 26.8335 52.7176 26.7816C52.7176 26.7297 52.7904 26.6882 52.8736 26.6882C52.9568 26.6882 53.1128 26.6467 53.2168 26.5948C53.6328 26.3664 54.3503 26.0654 54.4647 26.0654C54.5375 26.0654 54.5895 26.0239 54.5895 25.972C54.5895 25.9201 54.7351 25.8475 54.9015 25.8059C55.0783 25.7644 55.2135 25.6918 55.2135 25.6399C55.2135 25.588 55.2863 25.5465 55.3695 25.5465C55.4527 25.5465 55.6087 25.5049 55.7127 25.453C56.1287 25.2247 56.8463 24.9237 56.9607 24.9237C57.0335 24.9237 57.0855 24.8822 57.0855 24.8303C57.0855 24.7784 57.2103 24.7057 57.3663 24.6642C57.5223 24.6331 57.6887 24.5396 57.7303 24.4774C57.8967 24.2075 57.9487 24.6123 58.0319 26.8128C58.0735 28.0894 58.1151 29.1378 58.1255 29.1482C58.1359 29.2208 58.4271 29.1689 58.4583 29.0963C58.4791 29.0547 58.8847 28.8575 59.3735 28.6707C59.8623 28.4839 60.4031 28.2659 60.5903 28.1829C60.7671 28.0998 60.9855 28.0375 61.0791 28.0375C61.1727 28.0375 61.2455 27.9856 61.2455 27.9337C61.2455 27.8715 61.3183 27.83 61.4015 27.83C61.4847 27.83 61.7031 27.7677 61.8903 27.6846C62.0775 27.6016 62.4415 27.4563 62.7015 27.3629C62.8072 27.3207 62.9284 27.2716 63.0476 27.2234C63.2215 27.1529 63.3912 27.0842 63.5023 27.0411C63.6791 26.9581 63.9183 26.8958 64.0431 26.8958C64.1679 26.8958 64.2615 26.8647 64.2615 26.8128C64.2615 26.7712 64.6983 26.574 65.2287 26.3872C65.7487 26.19 66.2375 26.0032 66.2895 25.9616C66.3519 25.9201 66.5495 25.8475 66.7367 25.8059C66.9135 25.7748 67.0695 25.6918 67.0695 25.6399C67.0695 25.588 67.1735 25.5465 67.3087 25.5465C67.4335 25.5465 67.6311 25.4738 67.7351 25.3908C67.8495 25.3077 68.0367 25.2351 68.1615 25.2351C68.2863 25.2351 68.4735 25.1624 68.5879 25.0794C68.6919 24.9963 68.8895 24.9237 69.0247 24.9237C69.1495 24.9237 69.2535 24.8822 69.2535 24.8199C69.2535 24.768 69.4303 24.6953 69.6487 24.6538C69.8567 24.6123 70.0543 24.55 70.0855 24.5085C70.1167 24.467 70.5639 24.2801 71.0735 24.0933C71.5935 23.9065 72.0511 23.7093 72.1135 23.6574C72.1655 23.6159 72.2695 23.5743 72.3527 23.5743C72.4359 23.5743 72.6543 23.5017 72.8519 23.4186C72.9506 23.3771 73.078 23.32 73.2054 23.263C73.3328 23.2059 73.4602 23.1488 73.5591 23.1073C73.7567 23.0242 73.9751 22.9516 74.0583 22.9516C74.1311 22.9516 74.287 22.8789 74.3911 22.7959C74.5054 22.7128 74.703 22.6402 74.8382 22.6402C74.9734 22.6402 75.0774 22.5987 75.0774 22.5468C75.0774 22.4949 75.2334 22.4118 75.4206 22.3807C75.5974 22.3392 75.8054 22.2665 75.8574 22.2354C75.9198 22.1939 76.3566 22.007 76.8454 21.8202C77.3342 21.6334 77.875 21.4154 78.0414 21.3427C78.2182 21.2701 78.447 21.187 78.5614 21.1663C78.9878 21.0832 76.5438 20.9691 72.1343 20.8757C69.6383 20.8238 67.5167 20.7407 67.4231 20.6888C67.2879 20.6162 67.2775 20.5746 67.4023 20.4501C67.4751 20.3671 67.7039 20.0557 67.9015 19.765C68.0991 19.464 68.2967 19.2149 68.3487 19.2149C68.3903 19.2149 68.4215 19.1423 68.4215 19.0592C68.4215 18.9762 68.4527 18.9035 68.5047 18.9035C68.5463 18.9035 68.6919 18.7167 68.8375 18.4884C68.9727 18.26 69.1287 18.0732 69.1703 18.0732C69.2119 18.0732 69.2535 18.0213 69.2535 17.9694C69.2535 17.876 69.9919 16.7861 70.2935 16.4436C70.3455 16.3709 70.3975 16.2671 70.3975 16.2048C70.3975 16.153 70.4391 16.1011 70.4807 16.1011C70.5223 16.1011 70.7303 15.8416 70.9279 15.5302C71.1151 15.2188 71.3127 14.9593 71.3647 14.9593C71.4063 14.9593 71.4375 14.9074 71.4375 14.8451C71.4375 14.731 72.0615 13.8902 72.1967 13.8383C72.2383 13.8175 72.2695 13.7553 72.2695 13.7034C72.2695 13.61 72.8519 12.8004 73.0079 12.6758C73.0495 12.6447 73.1015 12.5201 73.1431 12.3852C73.1847 12.2606 73.2679 12.1568 73.3199 12.1568C73.3719 12.1568 73.4135 12.1049 73.4135 12.0426C73.4135 11.9804 73.5591 11.752 73.7255 11.5444C74.2038 10.9839 74.2455 10.9217 74.2455 10.8594C74.2455 10.8282 74.4118 10.5791 74.6095 10.3196C74.807 10.0602 74.9526 9.81104 74.9214 9.7799C74.8798 9.74876 74.8279 9.76952 74.7862 9.8318C74.7447 9.89408 74.5991 9.98749 74.4535 10.029C74.3079 10.0705 74.0167 10.2262 73.8087 10.3508C73.5903 10.4857 73.3511 10.5999 73.2575 10.5999C73.1743 10.5999 73.1015 10.631 73.1015 10.6829C73.1015 10.7244 72.8519 10.8698 72.5607 11.0151C72.2591 11.15 71.9887 11.2953 71.9575 11.3265C71.9263 11.3576 71.6975 11.4718 71.4375 11.5859C71.1775 11.7001 70.9487 11.8143 70.9175 11.8454C70.8655 11.8973 69.9815 12.3644 68.9207 12.8938C68.5983 13.0598 68.2759 13.1948 68.2239 13.1948C68.1615 13.1948 68.1095 13.2363 68.1095 13.2882C68.1095 13.3401 68.0055 13.4231 67.8807 13.4646C67.7455 13.5062 67.4647 13.6515 67.2567 13.776C67.0383 13.911 66.7991 14.0251 66.7159 14.0251C66.6431 14.0251 66.5183 14.0978 66.4455 14.1808C66.3727 14.2639 66.2271 14.3365 66.1231 14.3365C66.0087 14.3365 65.9255 14.378 65.9255 14.4403C65.9255 14.4922 65.8735 14.5441 65.8111 14.5441C65.7383 14.5441 65.4679 14.6791 65.2079 14.8347C64.9479 14.9904 64.5215 15.2084 64.2615 15.3226C64.0015 15.4368 63.7727 15.5509 63.7415 15.5821C63.7103 15.6132 63.5647 15.6962 63.4087 15.7585C63.0551 15.9142 62.9719 15.8 63.1071 15.3018C63.1591 15.0839 63.2839 14.5337 63.3775 14.077C63.4711 13.6203 63.5959 13.1636 63.6479 13.0702C63.6999 12.9664 63.7415 12.79 63.7415 12.6654C63.7415 12.4267 64.0327 11.1915 64.1679 10.8594C64.2095 10.7452 64.2823 10.3923 64.3239 10.0809C64.3551 9.76952 64.4279 9.44776 64.4695 9.35434C64.5631 9.17789 64.7815 8.15031 64.8543 7.55868C64.8855 7.35109 64.9479 7.17463 64.9895 7.17463C65.0311 7.17463 65.1039 6.88401 65.1351 6.54148C65.1767 6.18858 65.2495 5.82529 65.3015 5.73188C65.3951 5.54504 65.6135 4.53823 65.6863 3.92583C65.7175 3.71824 65.7799 3.54179 65.8215 3.54179C65.8631 3.54179 65.9359 3.25116 65.9775 2.88788C66.0191 2.53497 66.0919 2.19245 66.1335 2.14055C66.2167 2.03675 66.3935 0.946899 66.3207 0.946899C66.2999 0.946899 66.1959 1.11297 66.0815 1.32056Z" fill="url(#paint0_linear_107_935)"/>
<path d="M32.1259 5.86697C31.7307 6.08494 31.1171 6.34443 30.9923 6.34443C30.9299 6.34443 30.8779 6.38595 30.8779 6.43784C30.8779 6.48974 30.7323 6.5624 30.5659 6.60392C30.3891 6.64544 30.1187 6.73885 29.9627 6.81151C29.7027 6.93606 28.9331 7.28897 28.1011 7.65225C27.9243 7.73529 27.7267 7.79757 27.6643 7.79757C27.6019 7.79757 27.5499 7.90136 27.5499 8.01554C27.5499 8.23351 27.8203 9.14691 27.9763 9.46867C28.0179 9.56209 28.0907 9.82158 28.1323 10.0396C28.1635 10.2679 28.2363 10.4859 28.2779 10.5481C28.3091 10.6 28.4235 10.953 28.5275 11.3266C28.6315 11.7003 28.7563 12.0843 28.8083 12.1777C28.8603 12.2712 28.9331 12.541 28.9643 12.7798C29.0059 13.0081 29.0683 13.1949 29.1203 13.1949C29.1723 13.1949 29.2139 13.2987 29.2139 13.4129C29.2139 13.6413 29.4843 14.5547 29.6403 14.8764C29.6923 14.9698 29.7651 15.2397 29.7963 15.4784C29.8379 15.7068 29.9003 15.8936 29.9523 15.8936C30.0043 15.8936 30.0459 15.987 30.0459 16.1116C30.0459 16.2258 30.0979 16.4126 30.1603 16.5268C30.3163 16.8278 30.1915 17.0665 29.7547 17.2533L29.626 17.3112C29.4232 17.4026 29.1627 17.5199 28.9851 17.5959C28.7771 17.6893 28.5587 17.7619 28.4963 17.7619C28.4339 17.7619 28.3819 17.8035 28.3819 17.8554C28.3819 17.9073 28.2363 17.9799 28.0699 18.0214C27.8931 18.0629 27.6227 18.1564 27.4667 18.229C27.2067 18.3536 26.4371 18.7065 25.6051 19.0698C25.4283 19.1528 25.2307 19.2151 25.1683 19.2151C25.1059 19.2151 25.0539 19.2566 25.0539 19.3189C25.0539 19.3708 24.9915 19.4227 24.9083 19.4227C24.8251 19.4227 24.6275 19.4953 24.4611 19.5784C24.3051 19.651 23.9515 19.8067 23.6811 19.9105C23.4003 20.0143 23.1819 20.1285 23.1819 20.17C23.1819 20.2011 23.0363 20.2634 22.8595 20.3049C22.6827 20.3464 22.2979 20.4918 21.9963 20.6371C21.7051 20.7824 21.3307 20.9588 21.1539 21.0315C20.9875 21.1042 20.6756 21.2391 20.4572 21.3325C20.2492 21.4259 20.0308 21.4986 19.9684 21.4986C19.906 21.4986 19.854 21.5401 19.854 21.6024C19.854 21.6543 19.7708 21.7062 19.6668 21.7062C19.5628 21.7062 19.438 21.7477 19.386 21.7892C19.3236 21.8411 18.9908 21.9864 18.6372 22.1317C18.2732 22.2667 17.982 22.412 17.982 22.4535C17.982 22.495 17.8052 22.5573 17.5972 22.5988C17.3788 22.6403 17.1812 22.7026 17.15 22.7337C17.0876 22.8168 16.526 23.0763 15.2572 23.616C15.0492 23.7094 14.8308 23.7821 14.7684 23.7821C14.706 23.7821 14.654 23.8236 14.654 23.8651C14.654 23.9066 14.4772 24.0104 14.2692 24.0831C13.9156 24.2076 13.6868 24.3011 12.626 24.7681C12.5553 24.8034 12.4247 24.863 12.2651 24.9357C12.0488 25.0344 11.7794 25.1573 11.534 25.2767C11.1076 25.4739 10.6292 25.6712 10.4732 25.7023C10.3068 25.7438 10.182 25.8165 10.182 25.8684C10.182 25.9099 10.0156 25.9825 9.818 26.0241C9.6204 26.0552 9.454 26.1175 9.454 26.159C9.454 26.2005 9.2772 26.2939 9.06921 26.3666C8.70521 26.4911 8.46601 26.5949 7.45721 27.0413C7.24921 27.1347 7.03082 27.2073 6.96842 27.2073C6.90602 27.2073 6.85402 27.2489 6.85402 27.3111C6.85402 27.363 6.76042 27.4149 6.65642 27.4149C6.54202 27.4149 6.42762 27.4564 6.39642 27.5083C6.35482 27.5602 6.03242 27.7159 5.65802 27.8509C5.28362 27.9754 4.98203 28.1207 4.98203 28.1623C4.98203 28.2038 4.81563 28.2661 4.61803 28.3076C4.42043 28.3387 4.25403 28.4114 4.25403 28.4633C4.25403 28.5152 4.18123 28.5567 4.08763 28.5567C3.99403 28.5567 3.79643 28.619 3.65083 28.6916C3.49483 28.7746 3.20363 28.9096 3.00603 28.9926C2.80844 29.086 2.47564 29.2313 2.25724 29.3248C2.04924 29.4182 1.83084 29.4908 1.76844 29.4908C1.70604 29.4908 1.65404 29.5324 1.65404 29.5739C1.65404 29.6154 1.42524 29.7399 1.13404 29.8541C0.666046 30.0306 0.478847 30.2382 0.697246 30.342C0.801245 30.3835 1.13404 31.1204 1.13404 31.3073C1.13404 31.3799 1.16524 31.463 1.21724 31.4837C1.32124 31.5356 1.96604 32.9161 1.96604 33.1029C1.96604 33.1652 2.00764 33.2275 2.04924 33.2482C2.09084 33.2586 2.22604 33.5077 2.35084 33.7984C2.47564 34.0786 2.65244 34.3277 2.73564 34.3485C2.82924 34.3692 3.19323 34.2447 3.55723 34.0786C5.00283 33.3936 6.13642 32.9161 6.29242 32.9161C6.37562 32.9161 6.43802 32.8746 6.43802 32.8227C6.43802 32.7708 6.59402 32.6877 6.77082 32.6566C6.95802 32.6151 7.13481 32.5528 7.16601 32.5113C7.19721 32.4698 7.42601 32.3556 7.68601 32.2518C7.94601 32.1376 8.43481 31.9197 8.78841 31.7536C9.13161 31.5979 9.4956 31.463 9.5788 31.463C9.6724 31.463 9.766 31.4318 9.7868 31.3799C9.8284 31.2761 11.3052 30.6326 11.4924 30.6326C11.5756 30.6326 11.638 30.5807 11.638 30.5288C11.638 30.4665 11.69 30.425 11.7524 30.425C11.8148 30.425 12.1684 30.2797 12.5428 30.1136C12.9068 29.9372 13.2292 29.8022 13.25 29.8022C13.2708 29.8022 13.5932 29.6569 13.9572 29.4908C14.3316 29.3144 14.706 29.1795 14.7996 29.1795C14.8932 29.1795 14.966 29.1483 14.966 29.0964C14.966 29.0549 15.1844 28.9303 15.4652 28.8265C15.7356 28.7124 16.2452 28.4944 16.5988 28.3283C16.9524 28.1726 17.2852 28.0377 17.3476 28.0377C17.41 28.0377 17.462 27.9858 17.462 27.9339C17.462 27.8716 17.5556 27.8301 17.6596 27.8301C17.774 27.8301 17.8884 27.7886 17.9196 27.7367C17.9508 27.6848 18.0964 27.6121 18.2316 27.581C18.3772 27.5499 18.7932 27.3734 19.1572 27.2073C19.5316 27.0309 19.906 26.8959 19.9996 26.8959C20.0932 26.8959 20.166 26.8648 20.166 26.8129C20.166 26.7714 20.3844 26.6468 20.6652 26.543C20.9355 26.4289 21.4451 26.2109 21.7987 26.0448C22.1523 25.8891 22.4851 25.7542 22.5475 25.7542C22.6099 25.7542 22.6619 25.7023 22.6619 25.6504C22.6619 25.5881 22.7451 25.5466 22.8387 25.5466C22.9427 25.5466 23.3275 25.4013 23.7019 25.2248L23.7497 25.2023C24.1094 25.0328 24.4764 24.8598 24.5859 24.82C24.7003 24.7681 25.0539 24.6124 25.3659 24.4775L25.559 24.3938C25.8642 24.2612 26.256 24.091 26.5099 23.9897C26.8219 23.8547 27.1755 23.6783 27.2899 23.6056C27.4043 23.533 27.5707 23.4707 27.6747 23.4707C27.7787 23.4707 27.8619 23.4188 27.8619 23.3669C27.8619 23.3046 27.9347 23.2631 28.0179 23.2631C28.1011 23.2631 28.4859 23.1178 28.8707 22.9413C30.0563 22.4016 30.2331 22.3289 30.3475 22.3289C30.4099 22.3289 30.4619 22.277 30.4619 22.2251C30.4619 22.1629 30.5243 22.1214 30.6075 22.1214C30.6907 22.1214 30.8883 22.0591 31.0547 21.976C31.5747 21.7166 32.1259 21.4986 32.2611 21.4986C32.3963 21.4986 32.8539 22.111 32.8539 22.2978C32.8539 22.3601 32.8851 22.4327 32.9371 22.4535C33.0515 22.5054 33.6859 23.5226 33.6859 23.6575C33.6859 23.7302 33.7275 23.7821 33.7691 23.7821C33.8211 23.7821 33.9459 23.9585 34.0603 24.1661C34.1643 24.3841 34.3203 24.6228 34.3931 24.6955C34.4555 24.7681 34.5179 24.8823 34.5179 24.9342C34.5179 24.9861 34.6323 25.1626 34.7779 25.3183C34.9235 25.4739 35.0379 25.6504 35.0379 25.7231C35.0379 25.7957 35.0795 25.858 35.1315 25.858C35.1835 25.858 35.2667 25.9618 35.3083 26.0863C35.3499 26.2213 35.4019 26.3458 35.4435 26.377C35.5475 26.46 35.7659 26.8337 35.8283 27.0205C35.8699 27.1243 35.9323 27.2073 35.9843 27.2073C36.0363 27.2073 36.0779 27.2696 36.0779 27.3526C36.0779 27.4357 36.1403 27.5706 36.2131 27.6433C36.4003 27.8509 36.5979 28.1623 36.6603 28.3698C36.7019 28.4736 36.7539 28.5567 36.7955 28.5567C36.8371 28.5567 36.9827 28.7539 37.1179 28.9926C37.1851 29.1164 37.2471 29.23 37.2938 29.3154L37.2946 29.3169C37.3414 29.4026 37.3727 29.4597 37.3779 29.4701C37.3883 29.4805 37.5339 29.4286 37.7003 29.3351C37.8667 29.2521 38.0851 29.1795 38.1891 29.1795C38.2827 29.1795 38.3659 29.1483 38.3659 29.0964C38.3659 29.0549 38.5843 28.9407 38.8651 28.8369C39.1355 28.7331 39.4787 28.5774 39.6347 28.4944C39.7803 28.4114 39.9779 28.3491 40.0715 28.3491C40.1651 28.3491 40.2379 28.2972 40.2379 28.2453C40.2379 28.183 40.2899 28.1415 40.3523 28.1415C40.4667 28.1415 40.6435 28.0688 41.8291 27.5291C42.2138 27.3526 42.5986 27.2073 42.6818 27.2073C42.765 27.2073 42.8378 27.1658 42.8378 27.1139C42.8378 27.062 42.9938 26.979 43.181 26.9478C43.3578 26.9063 43.5346 26.844 43.5658 26.8025C43.597 26.761 43.8258 26.6468 44.0858 26.543C44.6994 26.2939 45.2506 26.0344 45.3962 25.9306C45.4794 25.8788 45.4378 25.6193 45.2506 25.0484C45.1154 24.6124 44.9594 24.1765 44.9074 24.0831C44.8658 23.9897 44.8034 23.699 44.7618 23.4292C44.7202 23.1697 44.6474 22.9517 44.5954 22.9517C44.5434 22.9517 44.5018 22.8791 44.5018 22.7856C44.5018 22.6092 44.221 21.675 44.0858 21.3948C44.0442 21.3014 43.9714 21.073 43.9402 20.8758C43.8986 20.6786 43.8258 20.4191 43.7842 20.3049C43.7322 20.1908 43.6074 19.8171 43.5138 19.4746C43.4098 19.132 43.2954 18.7791 43.2538 18.6857C43.2018 18.5923 43.1394 18.3017 43.0978 18.0318C43.0562 17.7723 42.9834 17.5543 42.9314 17.5543C42.8794 17.5543 42.8378 17.4817 42.8378 17.3883C42.8378 17.2118 42.557 16.2777 42.4218 15.9974C42.3802 15.904 42.3074 15.6756 42.2762 15.4784C42.1306 14.7934 41.8707 14.399 41.0387 13.6205C40.5811 13.1846 39.5619 12.1985 38.7715 11.4304C37.9811 10.6623 36.7435 9.46867 36.0155 8.78362C35.2875 8.09857 34.2683 7.13327 33.7587 6.62468C32.7811 5.69052 32.5939 5.60748 32.1259 5.86697Z" fill="url(#paint1_linear_107_935)"/>
<path d="M30.722 35.6667L30.7844 32.5009H69.5658V37.3586L70.0858 37.4312C70.377 37.4727 70.6058 37.5454 70.6058 37.5973C70.6058 37.6492 70.6994 37.6907 70.8034 37.6907C71.0114 37.6907 72.5506 38.2097 73.1746 38.4796C73.3514 38.5626 73.549 38.6249 73.6114 38.6249C73.6738 38.6249 73.7258 38.656 73.7258 38.6975C73.7258 38.7494 73.9442 38.874 74.225 38.9778C74.4954 39.092 74.7762 39.2476 74.849 39.3203C74.9218 39.393 75.057 39.4552 75.1402 39.4552C75.2234 39.4552 75.2858 39.4968 75.2858 39.5487C75.2858 39.6006 75.4106 39.6732 75.5666 39.7147C75.7226 39.7459 75.8786 39.8185 75.9098 39.86C75.941 39.9016 76.3154 40.161 76.7418 40.4413C77.1682 40.7215 77.5425 40.9706 77.5737 41.0122C77.6049 41.0433 77.8337 41.2301 78.0937 41.4274C78.1952 41.5061 78.2793 41.5713 78.3514 41.6272C78.6785 41.8806 78.7579 41.9422 79.0817 42.2058L79.3937 42.4653L79.0817 42.7248C78.7579 42.9885 78.6785 43.05 78.3513 43.3036C78.2792 43.3594 78.1951 43.4246 78.0937 43.5033C77.8337 43.7005 77.6049 43.8873 77.5737 43.9184C77.3866 44.126 76.6378 44.645 76.5442 44.645C76.4818 44.645 76.4298 44.6865 76.4298 44.7281C76.4298 44.7696 76.2426 44.9253 76.0138 45.0602C75.785 45.2055 75.5978 45.3508 75.5978 45.3923C75.5978 45.4442 75.5354 45.4754 75.4522 45.4754C75.369 45.4754 75.2338 45.5377 75.161 45.6103C75.0882 45.6726 74.849 45.8283 74.641 45.9425C74.4226 46.0566 74.2458 46.1812 74.2458 46.2227C74.2458 46.2746 74.1938 46.3057 74.1314 46.3057C74.0586 46.3057 73.7882 46.4407 73.5282 46.5964C73.2682 46.7624 72.8314 46.9804 72.561 47.0946C72.2802 47.1984 72.0618 47.3229 72.0618 47.3645C72.0618 47.3956 71.9266 47.4579 71.7498 47.4994C71.5834 47.5409 71.4378 47.6136 71.4378 47.6655C71.4378 47.7174 71.3858 47.7589 71.313 47.7589C71.2506 47.7589 70.8242 47.9042 70.377 48.0807L69.5658 48.4128V53.1563H58.9786L59.0618 53.4884C59.1866 53.997 59.405 54.5056 59.4986 54.5056C59.5402 54.5056 59.5818 54.5679 59.5818 54.6509C59.5818 54.7962 60.185 56.0729 60.2994 56.1663C60.3306 56.1975 60.4658 56.4258 60.601 56.6853C60.9234 57.3185 61.121 57.6298 61.4122 57.962C61.4642 58.0346 61.6098 58.2422 61.7138 58.4187C61.8282 58.6055 61.953 58.7612 61.9946 58.7612C62.0362 58.7612 62.0778 58.8339 62.0778 58.9169C62.0778 58.9896 62.1402 59.1037 62.213 59.1453C62.2858 59.1868 62.4314 59.3632 62.525 59.5189C62.629 59.685 62.7954 59.8926 62.889 59.9964C62.9826 60.1002 63.3258 60.4842 63.6378 60.8475C64.345 61.6467 66.4458 63.7434 66.5498 63.7434C66.5914 63.7434 66.841 63.9406 67.0906 64.1793C67.3506 64.4285 67.7042 64.7398 67.8914 64.8852C67.9578 64.9367 68.0267 64.9908 68.0914 65.0415C68.2091 65.1339 68.3124 65.2149 68.3594 65.2484C68.4218 65.3107 68.6402 65.4872 68.8482 65.6429L69.2226 65.9231H73.7258V68.8294H26.51V65.9231H30.7428L31.5124 65.1965C31.9388 64.8021 32.3964 64.3558 32.542 64.2105C32.6492 64.1111 32.7677 63.9892 32.8476 63.907C32.8762 63.8776 32.8999 63.8532 32.9164 63.8368C32.9892 63.7745 33.426 63.3386 33.9044 62.8611C34.7884 61.9893 35.35 61.3976 35.35 61.3146C35.35 61.2834 35.4748 61.1278 35.6412 60.9617C36.4004 60.1521 38.3659 57.4845 38.3659 57.2458C38.3659 57.1628 38.4075 57.1005 38.4491 57.1005C38.5011 57.1005 38.6259 56.924 38.7403 56.7061C38.8443 56.4985 38.9587 56.3013 39.0003 56.2701C39.1043 56.1663 40.0299 54.2461 40.0299 54.1112C40.0299 54.0489 40.0715 53.9866 40.1131 53.9866C40.1859 53.9866 40.4459 53.395 40.4459 53.2289C40.4459 53.1874 38.2723 53.1563 35.61 53.1563H30.774V50.5821C30.774 49.1705 30.7324 47.9665 30.6908 47.9146C30.5764 47.7485 30.1188 47.5721 29.5676 47.489C29.2868 47.4475 29.0372 47.3852 29.006 47.3541C28.9748 47.3229 28.694 47.2088 28.382 47.105C28.1396 47.0243 27.8722 46.9249 27.7112 46.8651C27.665 46.8479 27.6275 46.834 27.602 46.8247C27.4876 46.7728 27.1756 46.6379 26.9052 46.5237C26.6348 46.3992 26.3644 46.3057 26.3124 46.3057C26.25 46.3057 26.198 46.2538 26.198 46.2019C26.198 46.1397 26.1356 46.0982 26.0524 46.0982C25.9796 46.0982 25.6676 45.9632 25.3556 45.7971C25.0899 45.6557 24.7489 45.4767 24.5314 45.3626C24.4935 45.3426 24.4594 45.3247 24.43 45.3093C24.2324 45.1951 24.0452 45.081 24.014 45.0498C23.9828 45.0187 23.6084 44.7696 23.182 44.4893C23.0521 44.4008 22.9271 44.3161 22.8151 44.2403C22.5594 44.0672 22.3717 43.9401 22.35 43.9184C22.3286 43.8971 22.224 43.8171 22.0865 43.712C22.0236 43.6639 21.9538 43.6106 21.882 43.5552C21.4764 43.2542 19.2092 41.0226 18.7204 40.4309C18.502 40.1818 18.1796 39.7355 17.2748 38.4588C17.1812 38.3135 16.7236 37.4935 16.5884 37.2029C16.526 37.0679 16.4428 36.9641 16.4012 36.9641C16.3492 36.9641 16.318 36.9019 16.318 36.8292C16.318 36.7669 16.2556 36.5905 16.1828 36.4452C16.0997 36.2999 16.0165 36.0715 15.9853 35.9469L15.9229 35.7186L23.3172 35.6978L30.722 35.6667Z" fill="url(#paint2_linear_107_935)"/>
<defs>
<linearGradient id="paint0_linear_107_935" x1="40.0001" y1="0.946899" x2="40.0001" y2="68.8294" gradientUnits="userSpaceOnUse">
<stop stop-color="#00D1FF"/>
<stop offset="1" stop-color="#BD00FF"/>
</linearGradient>
<linearGradient id="paint1_linear_107_935" x1="40.0001" y1="0.946899" x2="40.0001" y2="68.8294" gradientUnits="userSpaceOnUse">
<stop stop-color="#00D1FF"/>
<stop offset="1" stop-color="#BD00FF"/>
</linearGradient>
<linearGradient id="paint2_linear_107_935" x1="40.0001" y1="0.946899" x2="40.0001" y2="68.8294" gradientUnits="userSpaceOnUse">
<stop stop-color="#00D1FF"/>
<stop offset="1" stop-color="#BD00FF"/>
</linearGradient>
</defs>
</svg>
