<svg width="26" height="24" viewBox="0 0 26 24" fill="none" xmlns="http://www.w3.org/2000/svg">
<path fill-rule="evenodd" clip-rule="evenodd" d="M6.65426 0.0332609C3.34734 0.273221 0.771649 1.2712 0.14853 2.55399L0.0175112 2.82375L0.0072144 4.57551C-0.00098085 5.97517 0.00605866 6.3349 0.0422368 6.36513C0.0671728 6.38594 0.316077 6.51048 0.595381 6.64191C2.56911 7.57049 4.58248 8.11386 6.74182 8.30067C7.32746 8.35136 8.84712 8.35068 9.45606 8.2995C11.7297 8.10833 13.8961 7.49268 16.0503 6.42554L16.1828 6.35985L16.1728 4.5759L16.1629 2.79195L16.0445 2.54554C15.8286 2.09585 15.2506 1.5883 14.5446 1.22822C13.3191 0.603221 11.5285 0.180117 9.47357 0.0299458C8.90676 -0.0114734 7.24359 -0.00951286 6.65426 0.0332609ZM10.2421 1.38177C11.9545 1.59136 13.5009 2.03265 14.2598 2.52836C14.4471 2.65062 14.6044 2.92113 14.6044 3.12088C14.6044 3.50296 14.3276 3.76128 13.5887 4.06878C12.1207 4.67966 10.2838 4.98428 8.07267 4.98346C5.66232 4.98261 3.49755 4.56888 2.16505 3.85442C1.77543 3.6455 1.64346 3.49718 1.61926 3.24093C1.57902 2.81459 1.71834 2.62339 2.27303 2.34375C3.20676 1.87299 4.80935 1.47773 6.30404 1.34952C6.54482 1.32884 6.79698 1.30571 6.8644 1.29808C6.93182 1.29049 7.57798 1.28888 8.30032 1.29455C9.38198 1.30307 9.7245 1.31843 10.2421 1.38177ZM0 8.99036V10.6143L0.0819524 10.669C0.222497 10.7627 1.28918 11.2397 1.82117 11.4467C2.68433 11.7826 3.76554 12.1012 4.68162 12.2895C6.35682 12.6341 8.31201 12.7167 10.0949 12.5184L10.296 12.496L10.1079 12.9016C10.0044 13.1247 9.89958 13.3655 9.87493 13.4369C9.83206 13.5608 9.82127 13.5676 9.63429 13.5878C9.16257 13.6389 7.52629 13.6544 6.96946 13.6131C4.70162 13.4445 2.67414 12.9116 0.59293 11.9372C0.29713 11.7986 0.0426924 11.6853 0.0275627 11.6853C0.012398 11.6853 0 12.4119 0 13.3001V14.9148L0.166357 14.9985C2.80537 16.3266 5.79047 17.0022 8.60536 16.9084L9.34822 16.8836L9.36395 16.9667C9.3726 17.0125 9.40545 17.2343 9.4369 17.4598C9.46839 17.6852 9.50274 17.9115 9.51325 17.9626C9.53006 18.0444 9.51896 18.0583 9.42096 18.0782C9.35971 18.0907 8.97614 18.1111 8.56855 18.1237C5.80567 18.2085 2.76709 17.5338 0.342169 16.2969C0.173992 16.2111 0.0272827 16.1409 0.0161106 16.1409C0.00490338 16.1409 0.000770712 16.6823 0.00689964 17.3439C0.0174764 18.4865 0.0219942 18.5576 0.0961717 18.7584C0.279304 19.2541 0.628268 19.6737 1.0387 19.8917C1.28648 20.0233 1.99957 20.3041 2.56532 20.4928C4.02299 20.9789 5.69622 21.3011 7.09204 21.3644C7.34245 21.3758 7.64799 21.3902 7.77099 21.3964C8.09302 21.4127 9.48807 21.356 9.85882 21.3115C10.0322 21.2908 10.3669 21.2473 10.6027 21.2149L11.0314 21.156L11.177 21.3307C11.6186 21.8606 12.4178 22.5468 13.0294 22.9213C13.8349 23.4146 14.7116 23.7419 15.7426 23.9341C16.0478 23.991 16.293 23.9995 17.6513 24C18.9878 24.0005 19.2626 23.9915 19.5806 23.9369C21.277 23.6456 22.7523 22.8544 23.9167 21.6114C25.0129 20.4413 25.7053 18.9879 25.9388 17.3669C26.0207 16.7992 26.0203 15.7765 25.9382 15.2001C25.5444 12.4372 23.7461 10.1193 21.1941 9.08536C20.7256 8.89555 20.2185 8.75176 19.6584 8.64985C19.2372 8.57321 19.1175 8.56819 17.6951 8.56733L16.1804 8.5664V7.97185V7.37726L15.7163 7.60132C13.8142 8.51974 11.8903 9.06126 9.66619 9.30422C9.02272 9.37451 7.07348 9.36335 6.37408 9.28536C4.11331 9.03328 2.05231 8.41459 0.0262668 7.37979C0.0118376 7.37241 0 8.09714 0 8.99036ZM17.7564 9.66993C18.9459 9.83361 19.9112 10.2281 20.8559 10.9368C22.1015 11.8712 23.0008 13.2802 23.3374 14.8249C23.8177 17.0289 23.1983 19.28 21.6622 20.913C20.6434 21.996 19.27 22.6989 17.7807 22.8994C17.2725 22.9678 16.2968 22.9499 15.8368 22.8636C14.3969 22.5937 13.2349 21.9611 12.2208 20.895C11.0267 19.6398 10.403 18.0575 10.403 16.2835C10.403 14.4299 11.0933 12.7756 12.4054 11.4848C13.429 10.4777 14.6647 9.87079 16.0928 9.67364C16.5593 9.60923 17.3033 9.60755 17.7564 9.66993ZM16.0053 11.3422V12.0329L15.8987 12.0545C15.6933 12.0963 15.2552 12.2956 15.0224 12.4532C14.0562 13.1069 13.7114 14.3313 14.2057 15.3532C14.4184 15.7931 14.9003 16.2343 15.5149 16.5521C15.6209 16.6069 15.9878 16.7678 16.3304 16.9097C17.3975 17.3519 17.7214 17.6398 17.7214 18.1467C17.7214 18.4261 17.5876 18.6789 17.358 18.8333C17.118 18.9947 16.8358 19.0638 16.4167 19.0638C15.8043 19.0638 15.2132 18.89 14.6709 18.5505C14.5 18.4435 14.3538 18.3669 14.346 18.3802C14.3382 18.3935 14.2095 18.7302 14.0601 19.1285C13.8276 19.7485 13.7955 19.8598 13.8374 19.9023C13.9564 20.0229 14.4775 20.2875 14.8145 20.3984C15.0167 20.4649 15.3516 20.5474 15.5587 20.5816L15.9352 20.6438V21.2974V21.951H16.6875H17.4397L17.4492 21.2552L17.4587 20.5595L17.7969 20.4412C17.9829 20.3761 18.2508 20.2495 18.3922 20.1597C18.6445 19.9996 19.022 19.6443 19.1608 19.4362C19.7871 18.4976 19.7043 17.2471 18.962 16.431C18.5839 16.0155 18.1116 15.7253 17.2135 15.3566C16.3012 14.9821 15.8993 14.7052 15.8457 14.414C15.7389 13.8348 16.1594 13.4693 16.9333 13.4684C17.4492 13.4678 17.9246 13.5933 18.4496 13.8687C18.6312 13.9639 18.7832 14.0369 18.7873 14.031C18.8041 14.0067 19.3674 12.5795 19.3674 12.5612C19.3674 12.53 18.7392 12.2171 18.5269 12.1426C18.2963 12.0617 17.9818 11.9868 17.7301 11.9529L17.5462 11.9281V11.2899V10.6516H16.7757H16.0053V11.3422ZM12.5549 15.6559C12.3524 15.7457 12.1532 16.057 12.1532 16.2835C12.1532 16.5272 12.3783 16.8538 12.5968 16.9272C12.778 16.9881 13.071 16.9534 13.2131 16.8543C13.423 16.7079 13.5011 16.5528 13.501 16.2828C13.501 16.0798 13.4864 16.0241 13.4008 15.8984C13.2255 15.6408 12.8388 15.53 12.5549 15.6559ZM20.5143 15.68C20.149 15.8763 20.0611 16.4321 20.3435 16.7596C20.5152 16.9586 20.9008 17.0207 21.1529 16.8898C21.6294 16.6424 21.6294 15.9246 21.1529 15.6772C20.9737 15.5842 20.6903 15.5854 20.5143 15.68Z" fill="#C1C1C1"/>
</svg>
