<svg width="23" height="23" viewBox="0 0 23 23" fill="none" xmlns="http://www.w3.org/2000/svg">
<path fill-rule="evenodd" clip-rule="evenodd" d="M17.2353 0.0334402C16.3591 0.148257 15.5473 0.487259 14.805 1.04826C14.6021 1.20155 14.5036 1.29847 11.1762 4.6178C9.93225 5.85866 8.83964 6.96594 8.7481 7.07847C8.37264 7.54001 8.02983 8.15771 7.85778 8.68277C7.75567 8.99441 7.64966 9.51513 7.61229 9.88869C7.55049 10.5064 7.63998 11.2767 7.84748 11.9129C8.24232 13.1236 9.13531 14.1985 10.2439 14.7973L10.4165 14.8906L10.5735 14.7512C10.8776 14.4812 11.6312 13.6892 11.7093 13.5575C11.8109 13.3863 11.9071 13.1462 11.8826 13.1249C11.8719 13.1156 11.7955 13.0842 11.7127 13.0549C10.0903 12.4818 9.31833 10.581 10.0809 9.03696C10.3015 8.59017 10.2242 8.67292 13.2161 5.67958C15.2767 3.61802 16.083 2.82588 16.2209 2.72766C16.7271 2.36705 17.2742 2.193 17.9068 2.19124C18.2715 2.19024 18.4781 2.22062 18.7982 2.32227C19.6514 2.59318 20.364 3.28354 20.6524 4.11852C20.8013 4.54952 20.8523 5.12507 20.7796 5.55458C20.7012 6.01782 20.5134 6.4653 20.2439 6.831C20.1584 6.94691 19.4325 7.68908 18.2456 8.87403L16.3814 10.735L16.4428 10.9496C16.5222 11.2271 16.6116 11.6795 16.648 11.9874C16.6808 12.266 16.6819 13.1201 16.6497 13.3789C16.6377 13.4745 16.6322 13.5576 16.6373 13.5634C16.6539 13.5822 21.7138 8.50386 21.8699 8.31172C22.441 7.60895 22.8165 6.75554 22.9584 5.83779C23.0141 5.47792 23.0138 4.729 22.9579 4.34858C22.8788 3.81051 22.7435 3.37751 22.4905 2.85336C21.7602 1.34012 20.3258 0.289697 18.6535 0.0432733C18.2909 -0.0101349 17.6041 -0.0149124 17.2353 0.0334402ZM11.9654 8.71223C11.5853 9.0983 11.3495 9.35665 11.2993 9.44206C11.197 9.61615 11.1017 9.85488 11.126 9.87598C11.1367 9.88523 11.2131 9.9167 11.2959 9.94595C12.2751 10.2919 13.0042 11.1618 13.1805 12.1944C13.2277 12.4711 13.2284 12.9179 13.182 13.1844C13.1123 13.5845 12.9309 14.0199 12.6854 14.3761C12.5167 14.621 7.05603 20.0809 6.78858 20.2721C6.28213 20.6342 5.75138 20.8042 5.11343 20.8086C4.72857 20.8112 4.53369 20.7818 4.18891 20.6692C3.76053 20.5294 3.41895 20.3239 3.08187 20.0032C2.2914 19.2512 1.99904 18.1023 2.32439 17.0266C2.39777 16.7841 2.5999 16.3825 2.75381 16.1734C2.82119 16.0818 3.69063 15.1957 4.74755 14.1413L6.62179 12.2716L6.52971 11.9034C6.33261 11.1155 6.2803 10.3942 6.36426 9.62202C6.37466 9.52636 6.37859 9.44354 6.37301 9.43793C6.3625 9.42743 1.58738 14.1923 1.31973 14.4804C0.728202 15.1171 0.276974 16.0081 0.10222 16.8845C-0.2352 18.5766 0.272713 20.2796 1.47804 21.4977C1.6245 21.6457 1.81727 21.8241 1.90642 21.8941C2.65681 22.4833 3.50821 22.8462 4.4275 22.9688C4.80151 23.0186 5.61016 23.0069 5.93545 22.947C6.79481 22.7885 7.51589 22.4724 8.20365 21.9526C8.40698 21.799 8.51305 21.6946 11.8443 18.3716C13.3086 16.911 14.1791 16.0254 14.2899 15.8835C14.5617 15.5355 14.7151 15.2936 14.8856 14.9443C15.1327 14.4378 15.2723 13.9902 15.3648 13.4072C15.4204 13.0571 15.4197 12.2995 15.3634 11.9527C15.2086 10.9978 14.861 10.2003 14.2868 9.48285C13.9522 9.06475 13.4915 8.6507 13.0532 8.37429C12.8316 8.2345 12.6103 8.1146 12.574 8.1146C12.5629 8.1146 12.289 8.38354 11.9654 8.71223Z" fill="#C1C1C1"/>
</svg>
