<svg width="19" height="20" viewBox="0 0 19 20" fill="none" xmlns="http://www.w3.org/2000/svg">
<path fill-rule="evenodd" clip-rule="evenodd" d="M3.09459 0.0434875C2.70536 0.097728 2.17932 0.289896 1.78198 0.522952C1.39166 0.751919 0.809974 1.32721 0.555783 1.7356C0.351732 2.06348 0.145622 2.59005 0.0624885 2.99596C-0.0214014 3.40548 -0.0206028 6.50723 0.0635393 6.91793C0.206774 7.61744 0.544603 8.25176 1.0553 8.78033C1.43469 9.17293 1.80417 9.42665 2.28746 9.62638C2.82573 9.84883 3.01032 9.86792 4.63121 9.86875C6.07348 9.86944 6.14291 9.86566 6.52516 9.76531C7.56832 9.49146 8.42332 8.76898 8.89055 7.76655C9.22906 7.04033 9.22826 7.04698 9.22826 4.95436C9.22826 3.16468 9.22523 3.09496 9.1334 2.76712C8.76316 1.44513 7.78729 0.461578 6.50587 0.118954C6.19296 0.0352667 6.02842 0.0253929 4.77318 0.0146492C4.01036 0.00816818 3.25497 0.0211302 3.09459 0.0434875ZM12.6746 0.0597553C11.1667 0.308209 9.96486 1.50815 9.68478 3.04494C9.58966 3.56685 9.6232 6.73363 9.72781 7.10744C10.0209 8.1545 10.7385 9.04235 11.6659 9.50529C12.3449 9.84417 12.3718 9.84774 14.2507 9.84774C16.1494 9.84774 16.1633 9.84582 16.8775 9.48106C17.6166 9.10368 18.1209 8.58494 18.4936 7.81857C18.8597 7.06608 18.8815 6.88896 18.8661 4.80212L18.8529 3.01875L18.7145 2.60553C18.512 2.00067 18.2465 1.56457 17.801 1.10489C17.215 0.500334 16.5174 0.143356 15.7228 0.0413997C15.2257 -0.0223665 13.0952 -0.00953497 12.6746 0.0597553ZM6.28623 1.23465C7.1925 1.49911 7.89329 2.25534 8.09301 3.1843C8.15093 3.45376 8.15921 3.74467 8.14719 5.08741C8.1308 6.91414 8.11899 6.98531 7.73303 7.58252C7.47472 7.98216 7.18493 8.25084 6.79343 8.45349C6.27404 8.72243 6.15144 8.73857 4.62608 8.73857C3.09829 8.73857 2.98741 8.72383 2.44251 8.44845C1.82636 8.13701 1.28112 7.40548 1.14146 6.70297C1.06677 6.32716 1.08178 3.4766 1.16024 3.13197C1.34202 2.33394 1.95909 1.61481 2.71456 1.32051C3.13346 1.15731 3.44368 1.13143 4.7942 1.14687C5.80058 1.1584 6.08155 1.17492 6.28623 1.23465ZM15.9094 1.23143C16.6228 1.43908 17.2165 1.94564 17.5197 2.60553C17.6131 2.80888 17.7101 3.07899 17.7353 3.20574C17.7633 3.34654 17.7812 4.0327 17.7812 4.9691C17.7812 6.67744 17.7696 6.775 17.5008 7.34468C17.2044 7.97281 16.5717 8.4882 15.8705 8.67267C15.5076 8.76815 12.9951 8.76837 12.6309 8.67293C11.7381 8.43905 11.0293 7.71327 10.8042 6.80249C10.7281 6.49462 10.7203 6.31972 10.7203 4.93478C10.7203 3.23584 10.7323 3.13263 10.9965 2.57274C11.3491 1.82524 12.101 1.27658 12.9156 1.17236C13.0836 1.15087 13.7695 1.13895 14.4399 1.14587C15.4255 1.15605 15.7066 1.1724 15.9094 1.23143ZM13.5993 10.2893C12.7202 10.4359 11.9309 10.8506 11.3098 11.492C9.82217 13.0285 9.6981 15.3677 11.0144 17.0611C11.5305 17.725 12.2237 18.2015 13.0618 18.4684C13.402 18.5767 13.4876 18.586 14.1456 18.5856C14.7451 18.5852 14.9123 18.5702 15.1837 18.4924C15.6081 18.3706 16.078 18.1432 16.4564 17.8762L16.7622 17.6606L17.4713 18.4C18.2089 19.169 18.4787 19.3953 18.6582 19.3953C18.785 19.3953 19 19.1955 19 19.0776C19 18.937 18.7435 18.6242 17.999 17.8569L17.287 17.1232L17.5098 16.7788C17.9576 16.0863 18.1697 15.352 18.1735 14.4801C18.1785 13.3749 17.8456 12.4537 17.1452 11.6339C16.6905 11.1018 15.8443 10.572 15.1543 10.3873C14.8225 10.2985 13.8944 10.24 13.5993 10.2893ZM2.83985 10.6719C1.67451 10.9436 0.689729 11.8057 0.251829 12.9374C0.0121378 13.557 -0.00421145 13.729 0.012432 15.4588C0.0267639 16.9553 0.0317654 17.0382 0.124481 17.3292C0.456973 18.3724 1.09901 19.1553 1.99927 19.6153C2.70531 19.976 2.70725 19.9763 4.50743 19.9937C5.99581 20.0081 6.11324 20.0035 6.46178 19.9182C7.51755 19.6597 8.42025 18.9103 8.89022 17.902C9.22443 17.185 9.22826 17.1556 9.22826 15.3066C9.22826 13.4643 9.2249 13.4381 8.89589 12.7185C8.46947 11.7858 7.68138 11.0854 6.66449 10.7352C6.37907 10.6369 6.32136 10.6336 4.73115 10.6235C3.47621 10.6155 3.03293 10.6269 2.83985 10.6719ZM14.9849 11.2175C16.4317 11.6005 17.4506 12.9303 17.4514 14.4366C17.4522 15.9088 16.5163 17.2542 15.1683 17.7186C14.7397 17.8664 14.0801 17.9142 13.6358 17.8299C11.8287 17.4869 10.6318 15.6757 10.997 13.8367C11.2477 12.5746 12.2132 11.5217 13.3959 11.221C13.8558 11.104 14.5504 11.1025 14.9849 11.2175ZM6.24588 11.8057C7.15051 12.0437 7.84933 12.7635 8.07586 13.6905C8.15526 14.0155 8.16085 14.1491 8.1487 15.4249C8.1355 16.806 8.13542 16.8075 8.02081 17.1324C7.79377 17.7764 7.32758 18.3223 6.76145 18.6075C6.26752 18.8562 6.13013 18.8733 4.62692 18.8733C3.37198 18.8733 3.2324 18.8658 2.94438 18.7832C2.48798 18.6523 2.16499 18.4578 1.82716 18.1103C1.50093 17.7748 1.27368 17.3615 1.15932 16.8959C1.08102 16.5772 1.06711 14.1494 1.14146 13.7754C1.32277 12.8632 2.11128 12.0246 2.99607 11.8029C3.34189 11.7162 5.91419 11.7185 6.24588 11.8057ZM12.7049 12.195C12.4034 12.3343 11.8565 13.0405 11.8554 13.2919C11.8552 13.3483 11.9069 13.425 11.9829 13.481C12.1763 13.6235 12.2928 13.5715 12.424 13.2845C12.5409 13.029 12.8158 12.7513 12.9887 12.7143C13.1722 12.6751 13.2206 12.6272 13.2336 12.4727C13.2554 12.2113 12.9812 12.0673 12.7049 12.195ZM16.3732 14.5677C16.2199 14.6273 16.1509 14.7594 16.1026 15.0867C15.9874 15.8656 15.5964 16.2746 14.8365 16.4111C14.5499 16.4626 14.4648 16.4963 14.3878 16.589C14.3355 16.6519 14.2928 16.7307 14.2928 16.7641C14.2928 16.8917 14.3925 17.0426 14.5102 17.0931C14.7943 17.2149 15.6524 16.9403 16.0266 16.608C16.258 16.4023 16.519 15.9675 16.6435 15.5798C16.7564 15.2287 16.7633 14.7403 16.6569 14.6457C16.5524 14.5528 16.4699 14.5302 16.3732 14.5677Z" fill="white"/>
</svg>
