<svg width="21" height="26" viewBox="0 0 21 26" fill="none" xmlns="http://www.w3.org/2000/svg">
<path fill-rule="evenodd" clip-rule="evenodd" d="M0 13V26H10.5H21V16.3641V6.72821L17.5899 3.36411L14.1798 0H7.08992H0V13ZM12.7248 4.7645L12.739 7.49775L12.8771 7.70357C12.967 7.83768 13.1096 7.9558 13.2861 8.04258L13.557 8.17578H16.2233H18.8897V16.0723V23.9688H10.5H2.11029V13V2.03125H7.41048H12.7107L12.7248 4.7645ZM16.1103 4.79883L17.422 6.09375H16.0971H14.7721V4.79883C14.7721 4.08662 14.778 3.50391 14.7853 3.50391C14.7926 3.50391 15.3888 4.08662 16.1103 4.79883ZM4.60348 4.53466C4.58922 4.57133 4.58407 4.88572 4.5921 5.23326L4.60662 5.86523H8.10662H11.6066V5.17969V4.49414L8.11799 4.48109C5.27671 4.47048 4.62458 4.48043 4.60348 4.53466ZM4.60348 7.47998C4.58922 7.51664 4.58407 7.83103 4.5921 8.17857L4.60662 8.81055H8.10662H11.6066V8.125V7.43945L8.11799 7.4264C5.27671 7.41579 4.62458 7.42574 4.60348 7.47998ZM13.9485 11.0957V11.7812H14.2956H14.6427L13.2023 13.2031L11.7618 14.6249L10.6161 13.4954L9.47033 12.3658L6.92274 14.879L4.37515 17.3921L4.86407 17.8744L5.35304 18.3569L7.41171 16.3262L9.47038 14.2956L10.6287 15.4375L11.7869 16.5794L13.717 14.6757L15.6471 12.772V13.1145V13.457H16.3419H17.0368V11.9336V10.4102H15.4926H13.9485V11.0957ZM4.60343 20.1754C4.58917 20.2121 4.58407 20.5263 4.5921 20.8739L4.60662 21.5059H10.5H16.3934V20.8203V20.1348L10.5113 20.1219C5.70093 20.1113 4.62458 20.1211 4.60343 20.1754Z" fill="#C1C1C1"/>
</svg>
