<svg width="22" height="19" viewBox="0 0 22 19" fill="none" xmlns="http://www.w3.org/2000/svg">
<path fill-rule="evenodd" clip-rule="evenodd" d="M9.53554 0.214031C9.25126 0.332543 8.78178 0.660867 8.49216 0.943787C8.20254 1.22671 6.19072 4.38406 4.02159 7.96006C0.359412 13.9973 0.0730674 14.5274 0.0119047 15.3786C-0.0666592 16.4726 0.240016 17.2613 1.03961 18.0221C2.08231 19.0141 1.93896 19 11 19C20.061 19 19.9177 19.0141 20.9604 18.0221C21.76 17.2613 22.0667 16.4726 21.9881 15.3786C21.9269 14.5274 21.6406 13.9973 17.9784 7.96006C15.8093 4.38406 13.7975 1.22671 13.5078 0.943623C13.2182 0.660539 12.7319 0.329264 12.4269 0.207311C11.7284 -0.0720029 10.2132 -0.0683968 9.53554 0.214031ZM11.8072 1.14409C12.0739 1.24015 12.4693 1.47684 12.6859 1.66977C13.1714 2.10251 20.439 14.0335 20.7643 14.9318C21.0453 15.7074 20.8548 16.5963 20.2823 17.181C19.4784 18.0019 19.3157 18.0165 11 18.0165C2.68428 18.0165 2.52164 18.0019 1.71774 17.181C1.14453 16.5957 0.954672 15.7076 1.23636 14.9296C1.51875 14.15 8.64153 2.36724 9.16805 1.80894C9.86703 1.06771 10.8844 0.811342 11.8072 1.14409ZM9.88012 1.95007C9.21439 2.36609 1.87504 14.3598 1.74496 15.2442C1.6347 15.9939 2.05009 16.7793 2.78163 17.2035C3.30677 17.5082 3.69907 17.5236 11 17.5236C18.3009 17.5236 18.6932 17.5082 19.2184 17.2035C19.9499 16.7793 20.3653 15.9939 20.255 15.2442C20.2015 14.8803 18.733 12.296 16.4026 8.4646C12.4236 1.9227 12.19 1.62699 11 1.62699C10.6683 1.62699 10.1644 1.77238 9.88012 1.95007ZM11.9378 5.5954C12.1512 5.88521 12.206 6.45482 12.206 8.38198C12.206 10.5857 12.175 10.8337 11.8614 11.132C11.67 11.3141 11.2872 11.4598 11 11.4598C10.7128 11.4598 10.33 11.3141 10.1386 11.132C9.82499 10.8337 9.79397 10.5857 9.79397 8.38198C9.79397 5.53525 9.91044 5.23102 11 5.23102C11.4967 5.23102 11.7389 5.32511 11.9378 5.5954ZM11.8614 13.099C12.318 13.5334 12.3168 14.428 11.8592 14.8221C11.0644 15.5063 9.79397 14.9854 9.79397 13.9751C9.79397 13.2857 10.3095 12.7712 11 12.7712C11.2872 12.7712 11.67 12.9169 11.8614 13.099Z" fill="#C1C1C1"/>
</svg>
