<svg width="15" height="16" viewBox="0 0 15 16" fill="none" xmlns="http://www.w3.org/2000/svg">
<path d="M7.5017 10.8C6.78598 10.8 6.09957 10.505 5.59348 9.9799C5.08738 9.4548 4.80306 8.74261 4.80306 8C4.80306 7.25739 5.08738 6.5452 5.59348 6.0201C6.09957 5.495 6.78598 5.2 7.5017 5.2C8.21743 5.2 8.90384 5.495 9.40993 6.0201C9.91602 6.5452 10.2003 7.25739 10.2003 8C10.2003 8.74261 9.91602 9.4548 9.40993 9.9799C8.90384 10.505 8.21743 10.8 7.5017 10.8ZM13.2305 8.776C13.2614 8.52 13.2845 8.264 13.2845 8C13.2845 7.736 13.2614 7.472 13.2305 7.2L14.8574 5.896C15.0039 5.776 15.0425 5.56 14.9499 5.384L13.4079 2.616C13.3153 2.44 13.1072 2.368 12.9375 2.44L11.0176 3.24C10.6167 2.928 10.2003 2.656 9.71459 2.456L9.4293 0.336C9.39846 0.144 9.23654 0 9.04378 0H5.95962C5.76686 0 5.60494 0.144 5.5741 0.336L5.28882 2.456C4.80306 2.656 4.3867 2.928 3.98576 3.24L2.06587 2.44C1.89624 2.368 1.68806 2.44 1.59554 2.616L0.0534574 5.384C-0.0467778 5.56 -0.000515288 5.776 0.145982 5.896L1.77288 7.2C1.74204 7.472 1.7189 7.736 1.7189 8C1.7189 8.264 1.74204 8.52 1.77288 8.776L0.145982 10.104C-0.000515288 10.224 -0.0467778 10.44 0.0534574 10.616L1.59554 13.384C1.68806 13.56 1.89624 13.624 2.06587 13.56L3.98576 12.752C4.3867 13.072 4.80306 13.344 5.28882 13.544L5.5741 15.664C5.60494 15.856 5.76686 16 5.95962 16H9.04378C9.23654 16 9.39846 15.856 9.4293 15.664L9.71459 13.544C10.2003 13.336 10.6167 13.072 11.0176 12.752L12.9375 13.56C13.1072 13.624 13.3153 13.56 13.4079 13.384L14.9499 10.616C15.0425 10.44 15.0039 10.224 14.8574 10.104L13.2305 8.776Z" fill="#535353"/>
</svg>
