<svg width="13" height="13" viewBox="0 0 13 13" fill="none" xmlns="http://www.w3.org/2000/svg">
<path fill-rule="evenodd" clip-rule="evenodd" d="M5.62381 0.0288374C4.2816 0.21193 3.02603 0.827308 2.0149 1.7977C1.23595 2.5452 0.664744 3.43384 0.331805 4.41615C0.118462 5.0456 0.0353045 5.50579 0.00605589 6.21886C-0.0736608 8.16426 0.634878 9.90001 2.05809 11.2457C2.95619 12.0949 3.9783 12.6271 5.2348 12.8997C5.8514 13.0334 7.14893 13.0334 7.76553 12.8997C8.9311 12.6468 10.0399 12.0947 10.7921 11.3927C11.0561 11.1462 11.0788 11.1103 11.0987 10.9072C11.1363 10.5207 10.8901 10.2391 10.5147 10.2392C10.315 10.2393 10.2536 10.2746 9.73753 10.6854C9.29625 11.0369 8.47905 11.4523 7.92915 11.6047C6.41784 12.0238 4.77631 11.745 3.49083 10.8512C3.03476 10.534 2.58531 10.1097 2.6094 10.019C2.62016 9.97841 3.22207 9.00554 3.94698 7.85705L5.26493 5.76893L5.29175 6.9717C5.32255 8.35261 5.35378 8.51554 5.64785 8.82983C5.82881 9.02323 6.022 9.10819 6.28197 9.10862C6.48653 9.10901 6.85331 8.90767 7.05095 8.68646C7.14818 8.57764 7.61986 7.86166 8.09917 7.09539L8.97063 5.70214L8.99706 6.56893C9.01907 7.29087 9.03941 7.484 9.11877 7.72472C9.24437 8.10559 9.52313 8.50937 9.80322 8.71619C10.9916 9.59362 12.6084 8.85665 12.9461 7.28361C13.0412 6.84024 13.0057 5.73869 12.8771 5.14547C12.5999 3.86656 12.0217 2.83298 11.0456 1.87145C10.0755 0.915834 9.06588 0.369468 7.75745 0.0922005C7.359 0.00775983 6.06086 -0.0307882 5.62381 0.0288374ZM7.77126 1.34486C8.65137 1.5718 9.39987 1.9784 10.0635 2.59005C11.1914 3.62954 11.7727 4.93374 11.7875 6.45789C11.7927 6.98809 11.7832 7.06653 11.6891 7.2724C11.3759 7.9574 10.6481 8.07317 10.3289 7.48878C10.2642 7.37053 10.2479 7.17005 10.2234 6.19714C10.1921 4.95478 10.1625 4.77329 9.93852 4.455C9.76784 4.21241 9.41126 4.04696 9.13831 4.08382C8.60857 4.15535 8.29619 4.49468 7.31207 6.06745L6.54428 7.29447L6.52037 5.80057C6.49509 4.21936 6.48561 4.1457 6.2712 3.86118C6.13017 3.67404 5.95379 3.5896 5.70392 3.5896C5.43636 3.5896 5.22756 3.69099 5.04166 3.9112C4.95895 4.0092 4.20585 5.17476 3.36819 6.50135C2.53052 7.82793 1.83045 8.91784 1.81245 8.92336C1.7945 8.92892 1.73534 8.83114 1.68099 8.70606C1.01559 7.17509 1.06337 5.49558 1.81342 4.05135C2.57697 2.58105 3.9495 1.57154 5.60616 1.26172C6.13078 1.16359 7.23244 1.20592 7.77126 1.34486Z" fill="#6C6C6C"/>
</svg>
