<svg width="23" height="22" viewBox="0 0 23 22" fill="none" xmlns="http://www.w3.org/2000/svg">
<path fill-rule="evenodd" clip-rule="evenodd" d="M0.905074 0.0694139C0.610472 0.170912 0.243658 0.522538 0.107104 0.83427L0 1.07874V8.59369V16.1086L0.11749 16.3638C0.258272 16.6695 0.500805 16.9273 0.782368 17.0704L0.989201 17.1756L4.63126 17.1881L8.27332 17.2006L9.11607 18.4638C9.57956 19.1586 10.2998 20.2384 10.7166 20.8635C11.1335 21.4886 11.4864 22 11.5009 22C11.5153 22 12.244 20.9249 13.1202 19.611L14.7133 17.222L18.3727 17.1988L22.0322 17.1756L22.257 17.0521C22.5512 16.8907 22.7426 16.679 22.8846 16.3584L23 16.0979L22.9882 8.54192L22.9764 0.98596L22.875 0.790108C22.7159 0.482922 22.5197 0.281549 22.2427 0.141224L21.9872 0.0117991L11.5557 0.00284639C2.02656 -0.005318 1.10516 0.000434071 0.905074 0.0694139ZM11.8479 4.56554C12.4939 4.74877 13.0339 5.21651 13.3313 5.85036C13.5668 6.35238 13.6318 6.78704 13.5637 7.40466C13.3788 9.08286 12.3842 10.6127 10.6446 11.8948C10.1672 12.2467 9.5774 12.5718 9.2288 12.6753C8.98833 12.7467 8.9524 12.7467 8.71468 12.6754C8.57408 12.6333 8.29589 12.5143 8.09643 12.4112C6.4892 11.5797 5.04421 10.0331 4.53108 8.59504C4.27209 7.86919 4.18153 6.96397 4.31512 6.43662C4.53594 5.56512 5.1657 4.90645 6.02432 4.6489C6.38637 4.54035 7.08951 4.57398 7.4521 4.71727C8.03316 4.9469 8.50915 5.39942 8.78343 5.98303L8.90816 6.24842L8.96711 6.07581C9.12754 5.60617 9.56939 5.06347 10.0059 4.79989C10.5665 4.46139 11.1977 4.3811 11.8479 4.56554ZM18.7723 8.59369V12.5599H18.2328H17.6932V9.21994C17.6932 7.38295 17.6827 5.87996 17.6699 5.87996C17.6571 5.87996 17.3535 6.09914 16.9952 6.36704C16.637 6.63493 16.3339 6.85412 16.3216 6.85412C16.3094 6.85412 16.2993 6.58483 16.2993 6.25571V5.65734L16.985 5.14442L17.6707 4.6315L18.2215 4.62946L18.7723 4.62747V8.59369Z" fill="#C1C1C1"/>
</svg>
