<svg width="18" height="18" viewBox="0 0 18 18" fill="none" xmlns="http://www.w3.org/2000/svg">
<path d="M7.8432 0.535202L7.84319 0.535203C6.09972 0.773031 4.4638 1.57283 3.14208 2.8413L3.14207 2.84131C2.1227 3.81952 1.37958 4.97783 0.947003 6.2541C0.669026 7.07426 0.562108 7.6618 0.523561 8.60156M7.8432 0.535202L14.5658 15.3547C13.6038 16.2526 12.1593 16.978 10.6248 17.3109C10.2513 17.392 9.63265 17.438 8.98484 17.438C8.33703 17.438 7.71839 17.392 7.34485 17.3109C5.69644 16.9533 4.36923 16.2605 3.19899 15.154C1.33952 13.3958 0.419525 11.1404 0.523561 8.60156M7.8432 0.535202C8.09923 0.500272 8.66034 0.491147 9.25279 0.508741C9.84809 0.526419 10.3909 0.568651 10.6161 0.616359L10.7197 0.127222L10.6161 0.61636C12.3263 0.978773 13.6341 1.68563 14.906 2.93851L14.906 2.93852C16.187 4.2004 16.9345 5.54083 17.2954 7.20588C17.3751 7.57382 17.4301 8.12508 17.4476 8.66875C17.4655 9.2214 17.4424 9.70273 17.3903 9.94531C17.1889 10.8838 16.6136 11.5463 15.9437 11.8516C15.2789 12.1546 14.5056 12.1165 13.8395 11.6248C13.5485 11.4098 13.2189 10.945 13.073 10.5023C12.9897 10.2496 12.9606 10.055 12.9299 9.04886L12.8935 7.85283L12.8433 6.20643M7.8432 0.535202L12.8433 6.20643M0.523561 8.60156L0.0239812 8.58107M0.523561 8.60156L0.0239812 8.58107M0.0239812 8.58107C0.0643397 7.59714 0.179084 6.96215 0.473464 6.0936L14.907 15.7202C13.8692 16.6888 12.3392 17.4506 10.7308 17.7996C9.88003 17.9841 8.08965 17.9841 7.23884 17.7996C5.50507 17.4234 4.09471 16.6891 2.85547 15.5173C0.891658 13.6605 -0.0860155 11.2654 0.0239812 8.58107ZM7.74329 6.29009L7.78029 7.94909L7.8173 9.60872C7.8389 10.5776 7.86081 11.0616 7.91793 11.3596C7.94398 11.4956 7.974 11.5713 8.00448 11.6264L7.74329 6.29009ZM7.74329 6.29009L6.85759 7.69336M7.74329 6.29009L6.85759 7.69336M6.85759 7.69336L5.03903 10.5746C4.53833 11.3679 4.0798 12.101 3.74429 12.6433M6.85759 7.69336L3.74429 12.6433M12.8433 6.20643L11.9698 7.60292L10.7673 9.52538C10.7673 9.52538 10.7673 9.52538 10.7673 9.52539C10.4384 10.0513 10.1125 10.5592 9.85279 10.9534C9.72283 11.1506 9.61056 11.3177 9.52339 11.4436C9.47973 11.5066 9.44361 11.5575 9.41546 11.5958C9.38706 11.6345 9.37394 11.6505 9.37218 11.6526C9.37203 11.6528 9.37196 11.6529 9.37198 11.6528C9.28156 11.754 9.13541 11.8668 8.97727 11.9536C8.9003 11.9958 8.82931 12.0271 8.77091 12.0467C8.71773 12.0646 8.69006 12.0678 8.68514 12.0684C8.68424 12.0685 8.6841 12.0685 8.68472 12.0685H8.6846M12.8433 6.20643L8.6846 12.0685M8.6846 12.0685C8.46694 12.0681 8.33129 12.0104 8.17389 11.8422L8.6846 12.0685ZM10.7628 1.76236L10.8636 1.37154C12.1573 1.70512 13.2638 2.30593 14.2406 3.2062M10.7628 1.76236L2.51653 12.3128L2.66311 12.7909C2.66357 12.7907 2.66404 12.7906 2.6645 12.7905C2.75289 12.7631 2.81121 12.7173 2.82475 12.7067L2.82552 12.7061C2.84775 12.6887 2.86392 12.673 2.87202 12.6649C2.88878 12.6481 2.90114 12.6334 2.90646 12.627C2.9185 12.6124 2.92884 12.5986 2.93508 12.5901C2.94888 12.5713 2.96488 12.5483 2.98128 12.5243C3.01497 12.475 3.06127 12.4054 3.11778 12.3194C3.2313 12.1466 3.39157 11.899 3.58642 11.5956C3.97639 10.9885 4.50757 10.1538 5.08597 9.23781C5.66318 8.32369 6.21098 7.4655 6.62838 6.81947C6.83718 6.4963 7.01269 6.22724 7.14266 6.0312C7.20775 5.93302 7.26046 5.8546 7.29976 5.79745C7.32891 5.75506 7.34515 5.73255 7.35177 5.72338C7.35547 5.71825 7.35616 5.71729 7.35443 5.71935L6.97234 5.39685M10.7628 1.76236L10.8636 1.37154M10.7628 1.76236L10.8636 1.37154M14.2406 3.2062L13.9017 3.57386L14.2406 3.2062ZM14.2406 3.2062C15.8976 4.73339 16.7588 6.66397 16.7806 8.90602L16.7806 8.90606C16.784 9.26273 16.7837 9.50783 16.7604 9.70064C16.7334 9.92425 16.6764 10.0744 16.5995 10.2427C16.3291 10.8341 15.8468 11.2458 15.288 11.3347C14.7048 11.4275 14.1436 11.1488 13.8291 10.5731C13.7304 10.3925 13.6977 10.1908 13.676 9.92515C13.6536 9.65102 13.6393 9.2313 13.6225 8.56367C13.6006 7.69549 13.5795 7.24243 13.532 6.95167C13.4917 6.7054 13.4383 6.60259 13.3203 6.43491C13.2622 6.35239 13.1555 6.26312 13.0197 6.2001C12.8817 6.1361 12.7617 6.12112 12.692 6.13054C12.4611 6.16172 12.2721 6.23525 11.9681 6.56544C11.6358 6.92638 11.212 7.54589 10.529 8.63737L10.1051 8.37215L10.529 8.63737L9.46957 10.3305L8.57283 11.7636L8.54578 10.0732L8.51279 8.01188C8.49509 6.90501 8.48284 6.37062 8.44275 6.05862C8.42406 5.91312 8.40241 5.84609 8.38469 5.80571C8.36628 5.76375 8.34059 5.72294 8.26962 5.62876C8.21249 5.55295 8.16277 5.51607 8.11795 5.49461C8.07148 5.47236 8.00162 5.45309 7.88615 5.45309C7.67666 5.45309 7.52423 5.51821 7.35439 5.71939L6.97234 5.39685M6.97234 5.39685C7.22885 5.09299 7.51696 4.95309 7.88615 4.95309C8.23094 4.95309 8.4743 5.06961 8.66891 5.32782L6.97234 5.39685ZM14.8197 15.0995C14.8223 15.0877 14.8265 15.0626 14.8324 15.0017L14.8197 15.0995ZM14.8197 15.0995C14.814 15.1076 14.7987 15.1273 14.7624 15.1651C14.7183 15.2109 14.6573 15.2693 14.5659 15.3547L14.8197 15.0995ZM11.0902 16.4946C11.913 16.2664 13.1012 15.6627 13.7634 15.1354L11.0902 16.4946ZM11.0902 16.4946L10.9566 16.0127L3.1329 13.6965C3.10092 13.817 3.11844 13.9199 3.13292 13.9768C3.14842 14.0376 3.17132 14.0878 3.18954 14.1228C3.22585 14.1925 3.27208 14.2561 3.31288 14.3072C3.39696 14.4126 3.50988 14.5293 3.63261 14.6452C3.88081 14.8795 4.21259 15.1509 4.54697 15.3834C6.44309 16.7019 8.86178 17.1124 11.0902 16.4946ZM14.4007 14.6574C14.2967 14.7172 14.1316 14.8422 13.7634 15.1354L14.4007 14.6574ZM14.4007 14.6574C14.4222 14.6451 14.4356 14.6389 14.4431 14.6358M14.4007 14.6574L14.4431 14.6358M14.4431 14.6358C14.4457 14.6347 14.4478 14.6339 14.4494 14.6334M14.4431 14.6358L14.4494 14.6334M14.4494 14.6334C14.4519 14.6325 14.4532 14.6322 14.4538 14.6321M14.4494 14.6334L14.4538 14.6321M14.4538 14.6321L14.4539 14.632M14.4538 14.6321L14.4539 14.632M14.4539 14.632C14.4564 14.6315 14.4689 14.6285 14.5244 14.6285L14.4539 14.632ZM3.74429 12.6433C3.57666 12.9142 3.43904 13.1387 3.34202 13.2996M3.74429 12.6433L3.34202 13.2996M3.34202 13.2996C3.2937 13.3797 3.25422 13.4461 3.22577 13.4953M3.34202 13.2996L3.22577 13.4953M3.22577 13.4953C3.21178 13.5195 3.19865 13.5427 3.18792 13.5627M3.22577 13.4953L3.18792 13.5627M3.18792 13.5627C3.18272 13.5724 3.17605 13.5851 3.16947 13.5987M3.18792 13.5627L3.16947 13.5987M3.16947 13.5987L3.16931 13.599M3.16947 13.5987L3.16931 13.599M3.16931 13.599C3.16723 13.6032 3.14665 13.6447 3.13294 13.6963L3.16931 13.599ZM10.8636 1.37154C10.4412 1.26262 9.8343 1.19822 9.25685 1.17604M10.8636 1.37154L9.25685 1.17604M9.25685 1.17604C8.68068 1.15391 8.076 1.17157 7.65935 1.2495L9.25685 1.17604ZM2.07414 5.35979C0.967704 7.49024 0.900171 9.96576 1.87655 12.2123L7.65933 1.24951C5.22528 1.70471 3.20003 3.19178 2.07414 5.35979ZM14.7645 14.7184C14.8051 14.7648 14.8469 14.8531 14.8324 15.0016L14.5245 14.6285C14.6536 14.6285 14.7254 14.6737 14.7645 14.7184Z" fill="white" stroke="black"/>
</svg>
