<svg width="24" height="24" viewBox="0 0 24 24" fill="none" xmlns="http://www.w3.org/2000/svg">
<path fill-rule="evenodd" clip-rule="evenodd" d="M12 24C18.6274 24 24 18.6274 24 12C24 5.37258 18.6274 0 12 0C5.37258 0 0 5.37258 0 12C0 18.6274 5.37258 24 12 24ZM4.9734 5.15088C5.2137 4.60495 5.69598 4.18239 6.23364 4.04661C6.3756 4.01077 7.19817 4.0029 11.0256 4.00075C15.6055 3.99818 15.6482 3.99871 15.8706 4.06264C16.1965 4.1563 16.451 4.3157 16.7105 4.5888C16.8718 4.75848 16.9676 4.89285 17.0468 5.06041C17.0757 5.12155 17.1004 5.16769 17.1217 5.21541C17.2591 5.52398 17.2491 5.89817 17.2495 10.8169L17.25 15.9329H18.225H19.2V17.0589C19.2 18.2956 19.1804 18.4926 19.0218 18.8526C18.7831 19.3946 18.2973 19.8137 17.7526 19.9475C17.4663 20.0177 9.33942 20.0174 9.0738 19.9471C8.54787 19.8079 8.103 19.4397 7.84737 18.9322C7.81984 18.8775 7.79614 18.8366 7.77573 18.7942C7.63986 18.5115 7.65 18.1586 7.65 13.2025V8.05971H6.225H4.8V6.93772C4.8 5.69979 4.81929 5.50096 4.9734 5.15088ZM7.54656 5.5353C7.44312 5.29885 7.2333 5.08874 7.02783 5.01582C6.49971 4.82843 5.97699 5.07143 5.78679 5.59278C5.73747 5.72794 5.73 5.83673 5.73 6.41981V7.09118H6.6933H7.6566L7.64466 6.41165C7.63287 5.74237 7.6314 5.72916 7.54656 5.5353ZM16.2477 5.5353C16.1448 5.3031 15.9379 5.09377 15.7273 5.00861C15.5923 4.95399 15.3982 4.95062 11.9332 4.94265L8.28135 4.93422L8.33844 5.03638C8.36985 5.09255 8.42694 5.2299 8.46528 5.34159L8.535 5.54467L8.55 11.9182L8.565 18.2917L8.63574 18.4546C8.72007 18.6488 8.94603 18.8791 9.14349 18.9719C9.33981 19.0642 9.68019 19.0642 9.87651 18.9719C10.074 18.8791 10.2999 18.6488 10.3843 18.4546C10.454 18.2941 10.4551 18.2747 10.4639 17.1123L10.4727 15.9329H13.412H16.3512L16.3431 10.8325L16.335 5.73212L16.2477 5.5353ZM9.9 7.2474V6.77876V6.31012H11.175H12.45V6.77876V7.2474H11.175H9.9ZM14.1 7.2474V6.77876V6.31012H14.55H15V6.77876V7.2474H14.55H14.1ZM9.9 9.09072V8.60646V8.1222H12.45H15V8.60646V9.09072H12.45H9.9ZM9.9 10.9028V10.4342V9.96552H12.45H15V10.4342V10.9028H12.45H9.9ZM9.9 12.7461V12.2619V11.7776H12.45H15V12.2619V12.7461H12.45H9.9ZM9.9 14.5582V14.0896V13.6209H12.45H15V14.0896V14.5582H12.45H9.9ZM18.2122 18.4025C18.2627 18.2641 18.27 18.1598 18.27 17.5728V16.9014H14.82H11.37V17.6233C11.37 18.4012 11.3461 18.5796 11.2028 18.8742C11.1628 18.9565 11.13 19.0316 11.13 19.0412C11.13 19.0507 12.5714 19.0547 14.3332 19.05L17.5363 19.0415L17.7374 18.9384C17.9686 18.8199 18.1239 18.6445 18.2122 18.4025Z" fill="#D9D9D9"/>
</svg>
