<svg width="25" height="21" viewBox="0 0 25 21" fill="none" xmlns="http://www.w3.org/2000/svg">
<path fill-rule="evenodd" clip-rule="evenodd" d="M12.5188 4.32211C6.41913 6.71029 1.36102 8.70038 1.27848 8.74452C0.865349 8.96558 0.841061 9.59026 1.23541 9.8523C1.29544 9.89217 2.55679 10.3837 4.03844 10.9445C5.52004 11.5053 6.73992 11.9719 6.74922 11.9814C6.75857 11.9909 7.22019 13.4819 7.77512 15.2947C8.33 17.1075 8.81636 18.679 8.85596 18.7869C8.99706 19.1716 9.40341 19.3591 9.72379 19.1874C9.81155 19.1403 10.5663 18.5373 11.4011 17.8472C12.2359 17.1571 12.9835 16.5568 13.0625 16.5132C13.2415 16.4143 13.647 16.4063 13.8223 16.4983C13.894 16.5358 15.1355 17.4384 16.5811 18.5038C18.0268 19.5692 19.3013 20.5004 19.4133 20.573C19.7584 20.7966 20.1575 20.7123 20.3407 20.3771C20.4398 20.1957 24.411 0.876894 24.411 0.5761C24.411 0.429862 24.3769 0.357464 24.2361 0.204394C23.8883 -0.173678 24.9914 -0.561322 12.5188 4.32211ZM19.298 4.32801C19.3896 4.42095 19.3884 4.45561 19.2898 4.57025C19.2457 4.62151 17.2814 6.4772 14.9247 8.69396C12.568 10.9107 10.5655 12.8106 10.4745 12.9159C10.2773 13.1444 10.1355 13.4154 10.0675 13.6936C10.0401 13.8057 9.94839 14.4154 9.86366 15.0487C9.77897 15.6819 9.68438 16.2308 9.65358 16.2685C9.56642 16.3749 9.34659 16.3542 9.27074 16.2324C9.23495 16.1749 8.94578 15.2028 8.6281 14.0722C8.21323 12.5954 8.05086 11.9477 8.05159 11.772C8.05288 11.4585 8.17542 11.1868 8.4003 10.9986C8.60996 10.8231 19.093 4.2636 19.1719 4.25849C19.2016 4.25659 19.2583 4.28786 19.298 4.32801Z" fill="white"/>
</svg>
