<svg width="17" height="15" viewBox="0 0 17 15" fill="none" xmlns="http://www.w3.org/2000/svg">
<path fill-rule="evenodd" clip-rule="evenodd" d="M8.38148 3.13232C3.96096 4.86308 0.295254 6.30533 0.23544 6.33732C-0.0639666 6.49752 -0.081569 6.95024 0.20422 7.14015C0.247728 7.16904 1.16186 7.52524 2.23563 7.93169C3.30938 8.33814 4.19345 8.67629 4.20019 8.68316C4.20696 8.69003 4.54151 9.77056 4.94367 11.0843C5.3458 12.3981 5.69828 13.537 5.72698 13.6152C5.82924 13.894 6.12373 14.0299 6.35592 13.9055C6.41952 13.8714 6.96652 13.4343 7.57147 12.9342C8.17646 12.4341 8.71829 11.999 8.77554 11.9674C8.90524 11.8958 9.19916 11.89 9.32617 11.9566C9.37814 11.9838 10.2779 12.6379 11.3256 13.41C12.3732 14.1822 13.2969 14.857 13.3781 14.9096C13.6281 15.0717 13.9174 15.0106 14.0502 14.7677C14.122 14.6362 17 0.635502 17 0.417511C17 0.311529 16.9753 0.259061 16.8733 0.148129C16.6212 -0.125868 17.4207 -0.406801 8.38148 3.13232ZM13.2945 3.13659C13.3609 3.20395 13.36 3.22907 13.2886 3.31215C13.2566 3.3493 11.833 4.69415 10.1251 6.30068C8.41719 7.90721 6.96589 9.28406 6.89999 9.36041C6.75705 9.52596 6.65426 9.72237 6.60497 9.92402C6.58514 10.0052 6.51869 10.4471 6.45728 10.906C6.3959 11.365 6.32735 11.7628 6.30503 11.7901C6.24187 11.8672 6.08255 11.8522 6.02758 11.7639C6.00164 11.7222 5.79207 11.0178 5.56185 10.1984C5.26118 9.12814 5.14351 8.65875 5.14404 8.53141C5.14497 8.30423 5.23378 8.10728 5.39675 7.97089C5.5487 7.84373 13.146 3.08992 13.2032 3.08621C13.2247 3.08483 13.2658 3.1075 13.2945 3.13659Z" fill="#6C6C6C"/>
</svg>
