<svg width="12" height="10" viewBox="0 0 12 10" fill="none" xmlns="http://www.w3.org/2000/svg">
<path d="M12 4.5C12 3.945 11.5091 3.5 10.9091 3.5H7.46182L7.98546 1.215C7.99636 1.165 8.00182 1.11 8.00182 1.055C8.00182 0.85 7.90909 0.66 7.76182 0.525L7.18364 0L3.59455 3.29C3.39273 3.475 3.27273 3.725 3.27273 4V9C3.27273 9.26522 3.38766 9.51957 3.59225 9.70711C3.79683 9.89464 4.07431 10 4.36364 10H9.27273C9.72546 10 10.1127 9.75 10.2764 9.39L11.9236 5.865C11.9727 5.75 12 5.63 12 5.5V4.5ZM0 10H2.18182V4H0V10Z" fill="#00DE24"/>
</svg>
