<svg width="18" height="19" viewBox="0 0 18 19" fill="none" xmlns="http://www.w3.org/2000/svg">
<path d="M16.8278 0.590595C17.0795 0.403231 17.4247 0.195049 17.5901 0.118716C17.9856 -0.0478298 18 -0.0478298 18 0.174231C18 0.847353 17.0004 1.9646 15.555 2.9153C14.6705 3.50515 14.3325 3.7966 14.3325 3.98396C14.3325 4.10193 14.39 4.17133 14.5267 4.22684C14.8143 4.33093 16.1806 4.31012 16.6193 4.19215C16.8206 4.13663 16.9932 4.11581 16.9932 4.14357C16.9932 4.23378 16.5977 4.62239 16.1231 5.00406C15.1523 5.78127 13.9801 6.44745 13.2107 6.66951C12.8655 6.76666 11.8156 7.24548 11.8156 7.301C11.8156 7.32181 11.794 7.37731 11.7725 7.43282C11.6718 7.69652 12.5563 8.10597 13.261 8.11291C13.4911 8.11985 13.6853 8.14067 13.6853 8.16842C13.6853 8.31415 13.2107 8.89706 12.8943 9.13994C12.0313 9.79918 10.4133 10.3196 9.23396 10.3266H8.709L8.08337 10.7915C7.15571 11.4855 5.44421 13.1648 4.77543 14.0392C3.97002 15.0939 3.28686 16.4124 2.81943 17.835C2.61808 18.4526 2.43111 18.98 2.41673 18.9939C2.40234 19.0147 2.34481 18.98 2.29448 18.9245C2.17942 18.8065 2.26571 18.3346 2.64684 17.0578C3.54574 14.0461 5.47298 10.7152 7.98989 7.7937C8.75934 6.91239 11.0533 4.7126 12.0313 3.92845C13.1388 3.04714 14.4619 2.09645 15.5047 1.45108C15.9793 1.15963 16.569 0.77102 16.8278 0.590595Z" fill="white"/>
<path d="M1.46031 3.66477C1.03603 3.84519 0.769953 4.06725 0.316909 4.60158C0.25938 4.67098 0.165895 4.92774 0.101174 5.18449C0.00768895 5.56616 -0.0138846 6.00334 0.00768894 7.77289L0.0292625 9.91023H0.223424C0.338483 9.91023 0.460733 9.87553 0.511071 9.82695C0.575792 9.7645 0.597365 9.16077 0.597365 7.55083C0.597365 5.10122 0.611747 5.05265 1.12232 4.55995L1.12683 4.55566C1.65449 4.05333 1.6618 4.04637 4.24329 4.02561C6.45817 4.0048 6.56604 3.99786 6.63795 3.86601C6.69548 3.7758 6.68829 3.69252 6.63795 3.59537C6.56604 3.46352 6.48694 3.45658 4.24329 3.45658L1.92773 3.46352L1.46031 3.66477Z" fill="white"/>
<path d="M16.7919 11.5965C16.7415 11.652 16.7056 12.4639 16.6912 13.8657C16.6696 15.9614 16.6624 16.0655 16.5114 16.3361C16.4251 16.4888 16.2382 16.7317 16.0872 16.8774C15.5839 17.363 15.5766 17.3631 12.8674 17.4047L12.8655 17.4048C10.6434 17.4395 10.4205 17.4534 10.3486 17.5574C10.2911 17.6477 10.2911 17.7171 10.3486 17.8003C10.4205 17.9183 10.6291 17.9252 12.8367 17.9391C15.0516 17.953 15.2817 17.9461 15.6269 17.8211C16.4827 17.5158 17.0364 16.8843 17.209 16.01C17.2881 15.6214 17.3097 11.9226 17.2377 11.659C17.1874 11.4855 16.9213 11.4438 16.7919 11.5965Z" fill="white"/>
</svg>
