<svg width="13" height="11" viewBox="0 0 13 11" fill="none" xmlns="http://www.w3.org/2000/svg">
<path d="M13 1.29412C12.5215 1.52059 12.0057 1.66941 11.4713 1.74059C12.0182 1.39765 12.4407 0.854118 12.6396 0.200588C12.1238 0.524118 11.5521 0.750588 10.9493 0.88C10.4584 0.32353 9.76864 0 8.98566 0C7.52534 0 6.33222 1.24235 6.33222 2.77588C6.33222 2.99588 6.35708 3.20941 6.40057 3.41C4.18834 3.29353 2.21845 2.18706 0.907266 0.511176C0.677342 0.918824 0.546845 1.39765 0.546845 1.90235C0.546845 2.86647 1.01291 3.72059 1.73375 4.20588C1.29254 4.20588 0.882409 4.07647 0.521989 3.88235C0.521989 3.88235 0.521989 3.88235 0.521989 3.90176C0.521989 5.24765 1.44168 6.37353 2.65966 6.62588C2.43595 6.69059 2.19981 6.72294 1.95746 6.72294C1.78968 6.72294 1.62189 6.70353 1.46033 6.67118C1.79589 7.76471 2.77151 8.58 3.94598 8.59941C3.03872 9.35 1.8891 9.79 0.633843 9.79C0.422562 9.79 0.211281 9.77706 0 9.75118C1.18069 10.5406 2.58509 11 4.08891 11C8.98566 11 11.6764 6.76824 11.6764 3.09941C11.6764 2.97647 11.6764 2.86 11.6702 2.73706C12.1922 2.34882 12.6396 1.85706 13 1.29412Z" fill="#6C6C6C"/>
</svg>
